<svg width="147" height="39" viewBox="0 0 147 39" fill="none" xmlns="http://www.w3.org/2000/svg">
<path d="M2.63366 13.2731L0.545219 11.3737C0.545219 11.3737 0.458735 10.4288 1.19866 10.1277C2.04108 9.78493 2.85147 10.1885 2.85147 10.1885L4.12952 12.6485L2.63366 13.2731Z" fill="#B40E1C"/>
<path d="M30.1774 13.3372L28.3708 11.9054L29.5848 10.1309C29.5848 10.1309 30.2126 9.62155 31.2984 10.1629C32.1281 10.5761 32.3331 11.3769 32.237 11.6235C32.1441 11.8701 30.1774 13.3372 30.1774 13.3372Z" fill="#B40E1C"/>
<path d="M3.2871 12.9304L2.27812 12.6581C2.27812 12.6581 2.16281 12.1809 2.38062 11.758C2.60804 11.3192 3.05327 11.3673 3.05327 11.3673C3.05327 11.3673 1.98023 10.8452 2.44788 9.5671C2.91554 8.28906 4.34734 8.57093 4.34734 8.57093C4.34734 8.57093 4.31531 7.76054 4.97195 7.26085C5.62538 6.76117 6.12507 7.13593 6.12507 7.13593C6.12507 7.13593 5.61898 5.51835 6.8714 4.76882C7.94124 4.1282 8.67796 4.73679 8.67796 4.73679C8.67796 4.73679 9.11038 3.65414 10.2955 3.63171C11.1828 3.6157 11.4519 3.95843 11.4519 3.95843C11.4519 3.95843 11.7626 3.33382 12.2623 3.05515C12.7619 2.77328 13.0598 2.81492 13.0598 2.81492C13.0598 2.81492 12.8324 2.03976 13.0726 1.40554C13.4955 0.284448 14.6614 0.0346045 15.5326 0.252417C16.7274 0.550308 16.5801 1.37671 16.5801 1.37671C16.5801 1.37671 17.1855 0.969917 17.746 1.03398C18.3066 1.09484 18.6012 1.4664 18.6012 1.4664C18.6012 1.4664 18.992 0.319683 20.2989 0.319683C21.609 0.319683 21.9805 1.09804 22.0446 1.69062C22.1087 2.2832 21.7147 2.98148 21.7147 2.98148C21.7147 2.98148 21.9037 3.05515 21.9613 3.50359C22.0062 3.84312 21.8748 4.14421 21.8748 4.14421C21.8748 4.14421 22.477 3.67015 23.6782 4.14421C25.6705 4.92898 25.2541 7.04945 25.2541 7.04945C25.2541 7.04945 25.8307 6.98218 26.2663 7.16796C26.766 7.38257 26.9966 7.73492 26.9966 7.73492C26.9966 7.73492 27.1087 6.80601 28.2747 6.7996C29.4919 6.7932 30.488 9.07382 30.2702 9.72726C30.0524 10.3807 29.4598 10.5377 29.4598 10.5377C29.4598 10.5377 30.0012 10.6914 30.203 11.348C30.4432 12.1232 30.2446 12.9464 30.2446 12.9464C30.2446 12.9464 21.7948 18.1034 21.7019 18.0714C21.609 18.0394 11.138 18.8498 11.138 18.8498L3.2871 12.9304Z" fill="#FFB91F"/>
<path d="M7.15969 14.5255C7.15969 14.4583 7.25578 14.1796 7.44477 14.0579C7.6786 13.9073 8.02774 13.8913 8.02774 13.8913C8.02774 13.8913 7.64336 13.7087 7.42875 13.1066C7.28782 12.7158 7.46078 12.293 7.46078 12.293C7.46078 12.293 6.44539 12.341 6.21157 11.5723C5.97774 10.8035 6.3461 10.7042 6.3461 10.7042C6.3461 10.7042 5.9393 8.52289 7.64657 8.48445C9.98164 8.4332 9.58125 11.4025 9.58125 11.4025C9.58125 11.4025 9.91438 11.4025 10.1162 11.5851C10.3148 11.7677 10.382 11.9534 10.382 11.9534C10.382 11.9534 10.8177 11.2968 11.8491 11.4537C14.2834 11.8221 13.1495 14.2052 13.1495 14.2052C13.1495 14.2052 12.6979 12.972 11.9163 12.9208C11.1316 12.8695 10.1642 13.4045 10.1642 13.4045C10.1642 13.4045 11.6473 13.587 12.0477 14.3718C12.448 15.1566 12.416 16.2232 12.416 16.2232C12.416 16.2232 9.44672 17.0912 9.37946 16.992C9.30899 16.8959 7.15969 14.5255 7.15969 14.5255Z" fill="#FCE193"/>
<path d="M9.00795 11.9246C8.79334 11.8317 8.19115 12.3603 8.17834 12.7542C8.16552 13.1482 8.49865 13.6511 8.89584 13.6864C9.28982 13.7216 9.68381 13.3148 9.68381 12.9208C9.68381 12.7222 9.27381 12.0399 9.00795 11.9246Z" fill="#E17A2C"/>
<path d="M10.8209 7.5043C10.8209 7.5043 9.22253 7.27367 9.25456 8.59336C9.29621 10.3423 11.2661 10.0828 11.2821 10.1757C11.2982 10.2686 11.3782 10.8644 11.3782 10.8644C11.3782 10.8644 12.1566 10.7747 12.9093 11.2199C13.6621 11.6652 13.9856 12.1873 13.9856 12.1873C13.9856 12.1873 14.1393 11.4666 14.3539 11.1591C14.5685 10.8516 14.7992 10.6209 14.7992 10.6209C14.7992 10.6209 14.7992 10.2366 14.6903 9.92906C14.6134 9.70805 14.4308 9.59273 14.4308 9.59273C14.4308 9.59273 16.1605 8.77273 15.2893 7.41141C14.3059 5.87711 12.7396 7.3025 12.7396 7.3025C12.7396 7.3025 12.1246 6.41203 11.359 6.62664C10.5903 6.84125 10.8209 7.5043 10.8209 7.5043Z" fill="#FCE193"/>
<path d="M14.7511 13.2603C14.7511 13.2603 14.2898 11.678 15.1515 11.2327C16.0131 10.7875 16.58 11.2936 16.6089 11.2007C16.6377 11.1078 17.9766 9.67922 19.1265 9.71125C20.8306 9.7561 21.2214 10.8388 21.2598 10.9541C21.4488 11.505 21.1989 12.3987 21.1989 12.3987C21.1989 12.3987 21.8428 11.3993 22.7653 11.4922C23.6878 11.5851 23.7903 12.3218 23.7903 12.3218C23.7903 12.3218 24.8089 12.9528 24.7608 13.5518C24.716 14.1508 24.0689 14.596 24.0689 14.596L22.5026 16.1303L20.8146 15.5473C20.8146 15.5473 20.584 14.7786 20.584 14.3045C20.584 13.8273 20.6288 13.4461 20.6288 13.4461C20.6288 13.4461 20.1675 13.6927 19.8472 13.7824C19.5237 13.8753 18.8479 13.8913 18.8479 13.8913C18.8479 13.8913 18.8222 13.5038 18.172 13.0617C16.7466 12.0944 14.7511 13.2603 14.7511 13.2603Z" fill="#FCE193"/>
<path d="M15.4269 15.3936C15.4269 15.3936 14.9048 13.4973 16.4103 13.4589C18.2072 13.4141 18.4667 15.0092 18.5308 15.8997C18.5916 16.7902 16.2117 18.1579 16.1188 18.1098C16.0259 18.065 13.7965 16.6941 13.7965 16.6941C13.7965 16.6941 13.6268 16.2008 14.0015 15.762C14.3923 15.2975 15.4269 15.3936 15.4269 15.3936Z" fill="#FCE193"/>
<path d="M25.4239 14.5191C25.4239 14.5191 24.9018 14.0899 25.0556 13.2763C25.2093 12.4627 25.8371 12.4179 25.8371 12.4179C25.8371 12.4179 25.3599 11.6812 25.5905 11.2039C25.8211 10.7266 26.1895 10.6209 27.3714 10.637C28.5534 10.653 29.1524 10.9733 29.5367 11.3897C29.8827 11.7612 29.6584 12.8952 29.6584 12.8952C29.6584 12.8952 27.9095 14.9996 27.7077 14.9516C27.5091 14.9035 25.4239 14.5191 25.4239 14.5191Z" fill="#FCE193"/>
<path d="M20.5231 9.03859C20.5231 9.03859 21.1381 9.42297 21.3367 9.71445C21.5353 10.0059 21.798 10.5601 21.798 10.5601C21.798 10.5601 21.9261 9.06102 22.5443 8.3307C23.2202 7.53313 24.101 7.56516 24.117 7.56516C24.2836 7.56516 24.5623 6.32234 23.9184 5.6625C23.1113 4.83609 21.7243 5.12438 21.7371 5.2493C21.7499 5.37422 22.2432 5.97 21.9229 7.35375C21.625 8.61578 20.5231 9.03859 20.5231 9.03859Z" fill="#FCE193"/>
<path d="M16.2245 9.33006C16.4712 9.45499 16.91 9.04178 17.2848 8.86881C17.714 8.67022 18.2681 8.59335 18.2841 8.37874C18.3002 8.16413 17.6852 7.39538 16.7947 7.82459C15.9042 8.25381 15.9491 9.19233 16.2245 9.33006Z" fill="#FCE193"/>
<path d="M2.98923 10.0732C2.91235 10.8548 3.70993 11.0982 3.70993 11.0982C3.70993 11.0982 3.61064 11.8189 3.89571 12.2353C4.12634 12.5716 4.6036 12.988 4.8022 12.9432C5.00079 12.8983 5.63181 12.2994 5.63181 12.2513C5.63181 12.2065 5.59657 10.4864 5.23142 9.8714C4.72532 9.00655 3.12696 8.68624 2.98923 10.0732Z" fill="#FCE193"/>
<path d="M5.78551 9.0386C6.00012 9.0386 6.21473 8.54852 6.33965 8.36274C6.46137 8.17696 6.92262 7.87266 6.92262 7.87266C6.92262 7.87266 6.21473 7.38259 5.7695 7.82782C5.32426 8.26985 5.462 9.0386 5.78551 9.0386Z" fill="#FCE193"/>
<path d="M7.50241 7.64205C7.50241 7.64205 7.93163 7.5972 8.17827 7.61001C8.42491 7.62603 8.83811 7.7029 8.83811 7.7029C8.83811 7.7029 8.89897 7.30251 9.34421 7.01103C9.78944 6.71955 10.2026 6.81244 10.2026 6.81244C10.2026 6.81244 10.2955 6.2583 10.6479 6.01486C11.0002 5.76822 11.2148 5.76822 11.2148 5.76822C11.2148 5.76822 11.5415 4.929 11.0611 4.61509C9.69335 3.72462 8.99186 5.51197 8.75803 5.55041C8.58507 5.57923 7.98288 4.98025 7.32303 5.4415C6.20194 6.22947 7.50241 7.64205 7.50241 7.64205Z" fill="#FCE193"/>
<path d="M11.833 5.63048C11.833 5.63048 12.2014 5.72337 12.4768 5.88993C12.7523 6.05649 13.1687 6.35118 13.1687 6.35118L15.1963 6.29032C15.1963 6.29032 15.6415 5.70735 16.2854 5.44469C16.8107 5.23008 17.4225 5.21407 17.4225 5.21407C17.4225 5.21407 17.4801 3.71501 16.2405 3.32423C14.6742 2.83415 14.1521 4.4293 14.1521 4.4293C14.1521 4.4293 13.6908 3.9104 13.1527 3.92321C11.9579 3.95524 11.833 5.63048 11.833 5.63048Z" fill="#FCE193"/>
<path d="M14.1201 5.09235C13.9343 5.09235 12.8452 6.02766 12.8164 6.12055C12.7844 6.21344 13.0759 6.36719 13.1079 6.45688C13.1399 6.54977 15.1035 6.33516 15.2124 6.25828C15.3181 6.18141 14.5365 5.09235 14.1201 5.09235Z" fill="#E17A2C"/>
<path d="M11.6665 8.25381C11.6761 8.43639 12.573 9.63436 12.8484 9.68241C13.1239 9.73045 14.0336 8.71506 13.7709 8.48444C13.6492 8.37553 12.7427 8.50045 12.7427 8.50045C12.7427 8.50045 12.7267 7.82459 12.6498 7.71889C12.5697 7.60998 11.6505 7.94952 11.6665 8.25381Z" fill="#E17A2C"/>
<path d="M13.8927 3.00391C14.1265 3.01031 14.3379 2.14547 14.6134 1.8668C14.8888 1.58813 15.5487 1.31266 15.3949 0.883438C15.2412 0.454219 14.0592 0.575938 13.6748 1.20695C13.2488 1.90844 13.3834 2.98789 13.8927 3.00391Z" fill="#FCE193"/>
<path d="M17.1631 2.77327C17.2111 2.98468 17.8069 3.23452 17.8998 3.34023C17.9927 3.44913 18.4219 3.83031 18.4219 3.83031C18.4219 3.83031 19.4052 3.58367 19.9882 3.73742C20.5712 3.89117 20.8466 4.30437 21.0164 4.19867C21.1862 4.08976 21.0933 3.63171 21.0004 3.47796C20.9075 3.32421 20.7249 3.03273 20.7249 3.03273C20.7249 3.03273 21.609 1.66179 20.6929 1.43437C19.3892 1.11085 19.1266 2.43374 18.9568 2.46257C18.787 2.4914 18.297 1.97249 17.7588 2.04937C17.2239 2.12945 17.099 2.49781 17.1631 2.77327Z" fill="#FCE193"/>
<path d="M17.8998 6.71955C18.1176 7.20322 18.8062 7.24165 18.8062 7.24165C18.8062 7.24165 19.1426 8.3179 19.8344 8.40759C20.5263 8.50048 20.9812 7.77978 21.1253 7.1808C21.3111 6.41205 21.3143 4.74962 19.6038 4.76884C18.313 4.78486 17.762 6.41205 17.8998 6.71955Z" fill="#FCE193"/>
<path d="M24.6839 12.2001C24.8986 12.1937 24.7544 10.9316 25.4335 10.4191C26.167 9.865 26.7404 9.9675 27.4931 10.0187C28.2747 10.07 28.8032 10.3134 28.9665 10.0956C29.1715 9.82656 29.2964 7.94953 28.2298 7.79257C27.5988 7.69968 27.4322 8.31468 27.4322 8.31468C27.4322 8.31468 26.7884 8.17695 26.4329 8.82078C26.1894 9.26601 26.1734 9.5575 26.0645 9.58953C26.0164 9.60234 24.37 7.05906 23.0856 8.60617C21.7499 10.2173 24.1907 11.553 24.1907 11.553C24.1907 11.553 24.2707 12.2161 24.6839 12.2001Z" fill="#FCE193"/>
<path d="M19.8185 5.0475C19.732 5.10516 19.6967 6.59782 19.7736 6.61383C19.8505 6.62985 20.8178 7.15196 20.9556 7.01422C21.0933 6.87649 21.0933 6.1686 20.8467 5.71055C20.6929 5.41586 20.126 4.84571 19.8185 5.0475Z" fill="#E17A2C"/>
<path d="M17.7748 3.17366C17.762 3.33061 17.9734 4.15702 18.2201 4.18584C18.6301 4.23709 19.386 3.80147 19.4629 3.64772C19.5398 3.49397 19.402 3.04873 18.787 2.89498C18.1784 2.74444 17.7909 2.95905 17.7748 3.17366Z" fill="#E17A2C"/>
<path d="M17.9286 12.5236C18.1432 12.7542 18.8863 12.1264 19.1554 12.2481C19.4629 12.3859 19.1554 13.1834 19.4917 13.2763C19.8281 13.3692 20.5039 12.2769 20.427 11.8029C20.395 11.6043 19.9978 11.3416 19.5686 11.1879C19.1394 11.0341 18.5564 10.9284 18.2938 11.095C18.0311 11.2616 17.5442 12.1104 17.9286 12.5236Z" fill="#E17A2C"/>
<path d="M26.9102 13.6287C26.9102 13.6287 26.8781 12.6453 27.1408 12.1552C27.4002 11.6652 28.0633 11.742 28.169 11.8638C28.2747 11.9855 28.6463 12.8759 28.6463 12.8759L27.8647 14.2116L26.9102 13.6287Z" fill="#E17A2C"/>
<path d="M16.2918 18.6512L13.2296 17.4532L13.1431 17.3187C12.9894 17.0784 10.9714 16.7549 10.9714 16.7549L10.792 16.7197L8.27758 16.1783L8.20711 16.0566C8.05016 15.7908 6.02578 15.0701 6.02578 15.0701L4.12313 14.3013L4.07188 14.1764C3.90211 13.7696 2.61446 13.0649 2.58563 13.1226L2.01227 12.8375C2.16281 12.5332 2.64008 12.0303 3.36399 12.3218C3.995 12.5748 4.71571 13.4493 4.87266 13.7952L5.90727 14.3301C6.16031 14.17 6.63758 14.0098 7.29102 14.2372C8.23914 14.5704 8.48899 15.3039 8.68438 15.6082L10.7664 16.0566C10.9874 15.8772 11.4551 15.5762 12.0797 15.6787C13.172 15.858 13.4378 16.489 13.6652 16.8094L16.0644 17.0144C16.3046 16.6844 16.9164 15.9862 17.8677 15.8548C18.7582 15.7299 19.4084 16.0374 19.6711 16.3449L21.9645 15.573C22.1567 15.2751 22.8198 14.4326 23.8576 14.2437C24.8249 14.0675 25.5841 14.5576 25.9332 14.7786L27.4643 13.9938C27.6277 13.7183 28.1562 12.8599 28.9634 12.6133C29.9723 12.309 30.6194 12.9464 30.6482 12.9688L30.2158 13.4429C30.203 13.4301 28.0985 14.6248 28.0921 14.6344L27.6405 15.4128L25.8723 15.5281L25.7122 15.4C25.7058 15.3936 22.4674 15.9797 22.461 15.9894L22.4002 16.1015L19.5045 17.0752L19.3636 16.9247C19.3444 16.9054 16.2918 18.6512 16.2918 18.6512Z" fill="#DFDFDF"/>
<path d="M30.5041 13.9202C30.4304 13.9266 29.8282 13.0809 29.0434 13.4077C28.2587 13.7376 27.5091 15.0861 27.5091 15.0861L25.0652 15.4705C25.0652 15.4705 24.7352 14.8042 23.8224 15.0605C22.9095 15.3167 22.0895 16.4378 22.0702 16.3641C22.051 16.2905 19.3796 16.9727 19.3796 16.9727C19.3796 16.9727 18.8511 16.3834 17.9094 16.6172C16.9356 16.8606 16.4071 18.0554 16.4071 18.0554L13.3738 17.4532C13.3738 17.4532 12.8548 16.5819 12.0701 16.473C11.2853 16.3641 10.776 16.8766 10.776 16.8766L8.51141 16.3257C8.51141 16.3257 8.16547 15.3776 7.17891 15.0477C6.19235 14.7177 5.71829 15.1373 5.71829 15.1373L4.25125 14.1412C4.25125 14.1412 3.81883 13.4301 2.99563 13.0457C2.17563 12.6613 1.9386 13.334 1.9386 13.334L7.05079 34.843L16.8395 38.8244L26.5034 34.5931C26.5098 34.5963 30.7251 13.8977 30.5041 13.9202Z" fill="white"/>
<path d="M2.63366 13.2731L2.62726 13.2507C2.53757 12.8311 2.30374 11.8798 1.7496 11.4474C1.0289 10.8868 0.545227 11.3705 0.545227 11.3705L6.10265 34.4906L7.46077 35.0095L2.63366 13.2731Z" fill="#ED3D23"/>
<path d="M6.23715 15.0092C6.23715 15.0092 6.15066 13.5646 5.01035 13.2219C4.10387 12.9496 4.06543 13.8817 4.06543 13.8817L8.57223 35.4676L10.2923 36.1594L6.23715 15.0092Z" fill="#ED3D23"/>
<path d="M11.0739 16.678C11.0739 16.678 10.6095 15.1245 9.42752 14.9932C8.24557 14.8619 8.36409 15.8548 8.36409 15.8548L11.4231 36.6303L13.1431 37.3286L11.0739 16.678Z" fill="#ED3D23"/>
<path d="M14.8311 16.2392C13.5339 16.0759 13.3545 17.3795 13.3545 17.3795L14.6966 37.9628L16.8491 38.8277L16.4647 17.9497C16.4647 17.9497 16.1925 16.4122 14.8311 16.2392Z" fill="#ED3D23"/>
<path d="M22.2784 16.3193C22.2784 16.3193 22.3457 14.6857 20.885 15.0989C19.4244 15.5089 19.2643 16.8766 19.2643 16.8766L18.8991 37.9372L20.7121 37.1332L22.2784 16.3193Z" fill="#ED3D23"/>
<path d="M27.6949 14.5672C27.6949 14.5672 27.6341 13.2859 26.3816 13.5454C25.0684 13.8145 25.0556 15.1374 25.0556 15.1374L22.7525 36.2556L24.5014 35.4836L27.6949 14.5672Z" fill="#ED3D23"/>
<path d="M31.039 11.4986C29.9627 12.0143 29.8698 13.398 29.8698 13.398L26.2023 34.7373L27.9223 33.9749L32.2498 11.6043C32.2466 11.6043 31.9807 11.0469 31.039 11.4986Z" fill="#ED3D23"/>
<path d="M38.0151 24.6254C38.0151 24.4965 38.0272 24.4119 38.0514 24.3716C38.0756 24.3313 38.1239 24.283 38.1964 24.2266C38.3253 24.1379 38.4865 24.0453 38.6798 23.9486C38.8732 23.8519 39.0706 23.7552 39.272 23.6586C39.4734 23.5619 39.6667 23.4692 39.8521 23.3806C40.0374 23.292 40.1904 23.2114 40.3113 23.1389C40.4885 22.8247 40.6134 22.4904 40.6859 22.1359C40.7584 21.7814 40.7947 21.4188 40.7947 21.0482V20.6978C40.7947 20.6333 40.7947 20.5688 40.7947 20.5044C40.7947 20.4399 40.7987 20.3755 40.8068 20.311C40.8148 20.2949 40.8229 20.2667 40.8309 20.2264C40.839 20.1862 40.847 20.1418 40.8551 20.0935C40.8632 20.0452 40.8672 20.0009 40.8672 19.9606C40.8752 19.9122 40.8793 19.876 40.8793 19.8518L41.0243 19.6101L41.0364 19.163C41.0364 19.1227 41.0283 19.0784 41.0122 19.03C41.0042 18.9736 40.9598 18.8931 40.8793 18.7883L41.0847 18.1237C41.0847 18.0592 41.0767 18.0068 41.0605 17.9666C41.0525 17.9263 41.0404 17.886 41.0243 17.8457C41.0082 17.8296 40.9921 17.7974 40.976 17.749C40.9598 17.7007 40.9518 17.6523 40.9518 17.604V17.3744L41.0847 16.4318L40.9518 15.61C40.9518 15.4247 40.9921 15.2394 41.0726 15.0541C41.1613 14.8688 41.2056 14.6875 41.2056 14.5103L41.1451 14.0389C41.1451 13.91 41.1572 13.7731 41.1814 13.6281C41.2136 13.483 41.2458 13.338 41.2781 13.193C41.3184 13.0399 41.3546 12.8868 41.3868 12.7338C41.4191 12.5726 41.4352 12.4155 41.4352 12.2625C41.403 12.2141 41.3546 12.1497 41.2902 12.0691C41.2257 11.9885 41.1774 11.916 41.1451 11.8516C41.1451 11.7468 41.1331 11.6139 41.1089 11.4528C41.0928 11.2916 41.0525 11.1385 40.988 10.9935C40.9316 10.8405 40.8511 10.7115 40.7463 10.6068C40.6497 10.5021 40.5248 10.4497 40.3717 10.4497L39.3687 10.5343H39.1149C38.9457 10.5101 38.7845 10.486 38.6315 10.4618C38.4865 10.4376 38.3535 10.4014 38.2327 10.353C38.1199 10.2966 38.0272 10.2201 37.9547 10.1234C37.8903 10.0267 37.858 9.88977 37.858 9.71252C37.858 9.5675 37.8661 9.45874 37.8822 9.38623C37.8983 9.31372 37.9305 9.26135 37.9789 9.22913C38.0272 9.1969 38.0917 9.17676 38.1722 9.1687C38.2609 9.15259 38.3737 9.13245 38.5106 9.10828L38.8007 8.98743H39.1995C39.7473 8.98743 40.271 9.02368 40.7705 9.09619C41.27 9.16064 41.7856 9.19287 42.3174 9.19287C42.4463 9.19287 42.5551 9.18079 42.6437 9.15662C42.7404 9.12439 42.8411 9.10828 42.9458 9.10828C43.3809 9.27747 43.7072 9.49902 43.9247 9.77295C44.1503 10.0469 44.3195 10.4054 44.4323 10.8485L44.4443 10.9935C44.4685 11.1547 44.4927 11.2836 44.5168 11.3802C44.541 11.4769 44.5773 11.5615 44.6256 11.634C44.682 11.7065 44.7585 11.7791 44.8552 11.8516C44.9519 11.916 45.0889 11.9926 45.2661 12.0812L45.2419 12.335C45.2419 12.4558 45.254 12.5767 45.2782 12.6975C45.3104 12.8103 45.3467 12.9271 45.387 13.048C45.4353 13.1608 45.4796 13.2776 45.5199 13.3984C45.5602 13.5193 45.5924 13.6522 45.6166 13.7972C45.6166 13.8214 45.6206 13.8657 45.6287 13.9302C45.6367 13.9866 45.6448 14.047 45.6528 14.1115C45.6689 14.1759 45.681 14.2363 45.6891 14.2927C45.6971 14.3491 45.7012 14.3854 45.7012 14.4015C45.7495 14.5223 45.818 14.6593 45.9066 14.8124C46.0033 14.9574 46.1 15.1064 46.1967 15.2595C46.2933 15.4126 46.39 15.5657 46.4867 15.7188C46.5834 15.8718 46.6639 16.0088 46.7284 16.1296C46.9379 16.5728 47.1393 17.0199 47.3326 17.4711C47.526 17.9222 47.7153 18.3774 47.9006 18.8367L48.2511 19.4167C48.2994 19.5054 48.3357 19.6021 48.3599 19.7068C48.384 19.8035 48.4122 19.8921 48.4445 19.9727C48.4847 20.0532 48.5331 20.1217 48.5895 20.1781C48.6459 20.2264 48.7305 20.2506 48.8433 20.2506C48.9641 20.2506 49.0487 20.2385 49.097 20.2144C49.1454 20.1902 49.1776 20.1499 49.1937 20.0935C49.2098 20.0371 49.2219 19.9727 49.23 19.9001C49.238 19.8196 49.2622 19.7229 49.3025 19.6101C49.3025 19.594 49.3387 19.5618 49.4113 19.5134C49.4918 19.4651 49.5402 19.4329 49.5563 19.4167C49.7094 19.2153 49.8383 19.0018 49.943 18.7762C50.0477 18.5426 50.1404 18.3049 50.2209 18.0632C50.3096 17.8135 50.3901 17.5637 50.4626 17.314C50.5352 17.0642 50.6157 16.8185 50.7043 16.5768C50.7043 16.5687 50.7205 16.5244 50.7527 16.4438C50.793 16.3633 50.8333 16.2747 50.8735 16.178C50.9219 16.0732 50.9662 15.9725 51.0065 15.8759C51.0548 15.7792 51.087 15.7107 51.1031 15.6704C51.224 15.3643 51.3207 15.0823 51.3932 14.8245C51.4738 14.5667 51.5785 14.3008 51.7074 14.0269L51.792 13.7972C51.9531 13.4911 52.1223 13.1729 52.2996 12.8425C52.4849 12.5042 52.6823 12.2302 52.8917 12.0208C52.8917 11.8918 52.8796 11.7992 52.8555 11.7428C52.8394 11.6864 52.8313 11.6381 52.8313 11.5978C52.8313 11.5575 52.8394 11.4971 52.8555 11.4165C52.8716 11.3279 52.8917 11.2393 52.9159 11.1506C52.9401 11.054 52.9602 10.9694 52.9763 10.8969C52.9924 10.8163 53.0005 10.7639 53.0005 10.7397C53.0166 10.7075 53.0327 10.6431 53.0488 10.5464C53.073 10.4497 53.0851 10.3812 53.0851 10.3409L53.3389 10.0751C53.3389 10.0509 53.3429 10.0106 53.351 9.95422C53.359 9.88977 53.363 9.82935 53.363 9.77295C53.3711 9.7085 53.3792 9.6521 53.3872 9.60376C53.3953 9.55542 53.3993 9.52319 53.3993 9.50708C53.4476 9.40234 53.5282 9.30969 53.641 9.22913C53.7618 9.1405 53.8907 9.07202 54.0277 9.02368C54.1727 8.96729 54.3137 8.927 54.4507 8.90283C54.5876 8.87061 54.7045 8.85449 54.8011 8.85449C54.9623 8.85449 55.1234 8.8988 55.2845 8.98743C55.4537 9.04382 55.627 9.07202 55.8042 9.07202L56.8918 8.85449C57.1819 8.85449 57.4357 8.86255 57.6532 8.87866C57.8788 8.88672 58.1447 8.92297 58.4508 8.98743C58.6925 9.02771 58.8134 9.16064 58.8134 9.38623C58.8134 9.5957 58.7408 9.76086 58.5958 9.88171C58.4508 9.99451 58.2695 10.0912 58.052 10.1718C57.8345 10.2443 57.6008 10.3087 57.3511 10.3651C57.1013 10.4135 56.8677 10.4739 56.6501 10.5464C56.4326 10.6108 56.2513 10.6995 56.1063 10.8123C55.9613 10.917 55.8888 11.062 55.8888 11.2473C55.8888 11.4165 55.917 11.5817 55.9734 11.7428C56.0298 11.8959 56.0902 12.053 56.1547 12.2141C56.2272 12.3752 56.2916 12.5404 56.348 12.7096C56.4044 12.8707 56.4326 13.0359 56.4326 13.2051L56.2393 14.3411V16.7581C56.2795 16.8225 56.2997 16.9071 56.2997 17.0118L56.348 18.3049L56.6139 18.7642V19.5376C56.6139 19.5537 56.6139 19.594 56.6139 19.6584C56.6219 19.7148 56.63 19.7793 56.6381 19.8518C56.6461 19.9243 56.6542 19.9928 56.6622 20.0573C56.6703 20.1217 56.6743 20.166 56.6743 20.1902C56.6904 20.3191 56.7106 20.5084 56.7347 20.7582C56.7589 20.9999 56.7871 21.2577 56.8193 21.5316C56.8596 21.8055 56.9039 22.0674 56.9523 22.3171C57.0087 22.5669 57.0771 22.7562 57.1577 22.8851C57.2463 23.0382 57.3672 23.155 57.5203 23.2356C57.6733 23.3081 57.8385 23.3685 58.0157 23.4169C58.201 23.4652 58.3864 23.5055 58.5717 23.5377C58.757 23.5699 58.9221 23.6183 59.0671 23.6827C59.2202 23.7391 59.3451 23.8197 59.4418 23.9244C59.5385 24.0292 59.5868 24.1782 59.5868 24.3716C59.5868 24.5327 59.5465 24.6576 59.4659 24.7462C59.3854 24.8348 59.2847 24.9033 59.1638 24.9517C59.043 25 58.9141 25.0282 58.7771 25.0363C58.6401 25.0524 58.5193 25.0604 58.4146 25.0604H57.7861C57.6169 25.0604 57.4357 25.0564 57.2423 25.0483C57.057 25.0403 56.8798 25.0282 56.7106 25.0121C56.5414 24.996 56.3923 24.9799 56.2634 24.9637C56.1345 24.9396 56.0419 24.9114 55.9855 24.8792C55.9613 24.863 55.8807 24.855 55.7438 24.855H55.5142L54.209 25.0604L53.0851 24.9396C53.0529 24.9396 53.0045 24.9557 52.9401 24.9879C52.8837 25.0201 52.8474 25.0443 52.8313 25.0604C52.6863 25.0604 52.5413 25.0483 52.3962 25.0242C52.2512 25 52.1183 24.9597 51.9974 24.9033C51.8846 24.8469 51.788 24.7744 51.7074 24.6858C51.6349 24.5891 51.5986 24.4723 51.5986 24.3353C51.5986 24.1581 51.7155 24.0372 51.9491 23.9728C52.0458 23.9647 52.1384 23.9567 52.2271 23.9486C52.3157 23.9406 52.4124 23.9365 52.5171 23.9365C52.8152 23.9365 53.0972 23.9124 53.363 23.864C53.637 23.8076 53.8625 23.6626 54.0398 23.429C54.0479 23.3887 54.0599 23.3524 54.076 23.3202C54.0841 23.296 54.0922 23.2719 54.1002 23.2477C54.1083 23.2235 54.1123 23.2074 54.1123 23.1993C54.1123 23.1832 54.1163 23.1631 54.1244 23.1389C54.1405 23.1147 54.1566 23.0865 54.1727 23.0543L54.2573 22.7643C54.3057 22.579 54.3379 22.3937 54.354 22.2084C54.3701 22.0231 54.3782 21.8378 54.3782 21.6525C54.3782 21.4188 54.3661 21.1932 54.3419 20.9757C54.3258 20.7501 54.2976 20.5165 54.2573 20.2748L54.2332 20.166C54.217 20.1177 54.209 20.0573 54.209 19.9847C54.209 19.9042 54.209 19.8196 54.209 19.731C54.209 19.6101 54.209 19.4812 54.209 19.3442C54.209 19.1992 54.2009 19.0663 54.1848 18.9454C54.1768 18.8165 54.1606 18.7037 54.1365 18.6071C54.1123 18.5023 54.0801 18.4258 54.0398 18.3774C54.0559 18.3372 54.064 18.309 54.064 18.2928C54.064 18.2687 54.064 18.2405 54.064 18.2083V18.0149L53.7981 16.033L53.8585 14.5707C53.8585 14.4982 53.8545 14.4055 53.8464 14.2927C53.8384 14.1719 53.8303 14.0551 53.8223 13.9423C53.8223 13.8214 53.8182 13.7207 53.8102 13.6401C53.8021 13.5515 53.7981 13.5072 53.7981 13.5072C53.7981 13.4347 53.7941 13.33 53.786 13.193C53.786 13.056 53.7739 12.9191 53.7498 12.7821C53.7256 12.6451 53.6853 12.5243 53.6289 12.4196C53.5725 12.3148 53.496 12.2625 53.3993 12.2625C53.3671 12.2625 53.3348 12.2705 53.3026 12.2866C53.2784 12.3027 53.2664 12.3188 53.2664 12.335L53.0851 13.1688C52.9723 13.2172 52.9038 13.2977 52.8796 13.4105C52.8635 13.5233 52.8555 13.6442 52.8555 13.7731C52.8555 13.8375 52.8555 13.902 52.8555 13.9664C52.8555 14.0228 52.8474 14.0752 52.8313 14.1235C52.7024 14.3572 52.5533 14.5707 52.3842 14.764C52.223 14.9493 52.078 15.1467 51.9491 15.3562C51.9088 15.3965 51.8726 15.469 51.8403 15.5737C51.8081 15.6704 51.7759 15.7792 51.7437 15.9C51.7114 16.0128 51.6832 16.1216 51.6591 16.2263C51.6349 16.323 51.6147 16.3955 51.5986 16.4438C51.4939 16.7258 51.373 17.0078 51.2361 17.2898C51.0991 17.5718 50.9501 17.8497 50.7889 18.1237L50.7043 18.3049C50.6882 18.321 50.6761 18.3855 50.6681 18.4983C50.66 18.603 50.6479 18.6715 50.6318 18.7037C50.6077 18.7198 50.5714 18.748 50.5231 18.7883C50.4828 18.8286 50.4385 18.8729 50.3901 18.9213C50.3418 18.9696 50.2975 19.0179 50.2572 19.0663C50.2169 19.1066 50.1847 19.1348 50.1605 19.1509L49.9913 20.021C49.9672 20.1338 49.9269 20.2385 49.8705 20.3352C49.8141 20.4319 49.7537 20.5286 49.6892 20.6252C49.6328 20.7139 49.5764 20.8065 49.52 20.9032C49.4636 20.9918 49.4193 21.0885 49.3871 21.1932C49.3871 21.2094 49.3831 21.2496 49.375 21.3141C49.3669 21.3785 49.3549 21.451 49.3387 21.5316C49.3307 21.6122 49.3226 21.6887 49.3146 21.7612C49.3065 21.8337 49.3025 21.8821 49.3025 21.9062C49.3025 21.9304 49.2864 22.011 49.2542 22.1479C49.23 22.2769 49.1978 22.4178 49.1575 22.5709C49.1172 22.724 49.0769 22.865 49.0366 22.9939C49.0044 23.1147 48.9802 23.1832 48.9641 23.1993L48.6741 23.5377C48.658 23.5619 48.6499 23.6384 48.6499 23.7673C48.6499 23.8318 48.6459 23.9083 48.6378 23.9969C48.6298 24.0775 48.6096 24.1541 48.5774 24.2266C48.5452 24.2991 48.5009 24.3595 48.4445 24.4078C48.3961 24.4562 48.3317 24.4803 48.2511 24.4803C48.1786 24.4803 48.1021 24.4521 48.0215 24.3958C47.949 24.3394 47.8724 24.2668 47.7919 24.1782C47.7194 24.0896 47.6469 23.9969 47.5743 23.9003C47.5099 23.8036 47.4495 23.7109 47.3931 23.6223C47.3931 23.6062 47.377 23.578 47.3447 23.5377C47.3125 23.4894 47.2964 23.4531 47.2964 23.429C47.1433 23.1711 47.0426 22.8972 46.9943 22.6072C46.9459 22.3171 46.8774 22.019 46.7888 21.7129C46.7727 21.6404 46.7203 21.5236 46.6317 21.3624C46.5511 21.2013 46.4585 21.0321 46.3538 20.8549C46.249 20.6696 46.1483 20.4923 46.0516 20.3231C45.955 20.1539 45.8824 20.021 45.8341 19.9243C45.6488 19.5618 45.4595 19.1992 45.2661 18.8367C45.0728 18.4741 44.8834 18.1116 44.6981 17.749L44.4323 16.9031C44.1986 16.3794 43.9529 15.892 43.6951 15.4408C43.4373 14.9816 43.1794 14.5103 42.9216 14.0269C42.9055 13.9946 42.8773 13.9503 42.837 13.8939C42.7968 13.8375 42.7686 13.8053 42.7524 13.7972L42.4866 13.5072C42.4624 13.4589 42.4463 13.4065 42.4382 13.3501C42.4382 13.2937 42.4342 13.2413 42.4261 13.193C42.4181 13.1447 42.3979 13.1044 42.3657 13.0721C42.3335 13.0399 42.2771 13.0238 42.1965 13.0238C42.1562 13.0238 42.1281 13.0278 42.1119 13.0359C42.1039 13.0439 42.0878 13.0681 42.0636 13.1084L41.9186 14.5103V15.0903C41.9186 15.3643 41.9186 15.6342 41.9186 15.9C41.9186 16.1578 41.9266 16.4237 41.9427 16.6976C41.9669 17.2213 41.979 17.7571 41.979 18.3049C41.9871 18.3291 41.9991 18.3654 42.0153 18.4137C42.0314 18.454 42.0475 18.5104 42.0636 18.5829C42.0797 18.6473 42.0999 18.7319 42.124 18.8367L42.0273 19.0784C42.0273 19.2153 42.0072 19.3362 41.9669 19.4409C41.9347 19.5376 41.9186 19.6907 41.9186 19.9001V20.1056L42.1482 20.5527C42.1643 20.585 42.1724 20.6212 42.1724 20.6615C42.1724 20.7018 42.1724 20.7461 42.1724 20.7944V21.1932C42.1724 21.4027 42.1804 21.6082 42.1965 21.8096C42.2126 22.011 42.2731 22.1761 42.3778 22.3051L43.3204 23.3685C43.3204 23.5297 43.3607 23.6505 43.4413 23.7311C43.5219 23.8116 43.6226 23.8761 43.7434 23.9244C43.8643 23.9728 43.9932 24.009 44.1301 24.0332C44.2751 24.0574 44.4081 24.0936 44.5289 24.142C44.6498 24.1823 44.7505 24.2427 44.8311 24.3232C44.9116 24.4038 44.9519 24.5166 44.9519 24.6616C44.9519 24.6858 44.9479 24.722 44.9398 24.7704C44.9398 24.8107 44.9318 24.855 44.9156 24.9033C44.9076 24.9436 44.8915 24.9799 44.8673 25.0121C44.8431 25.0443 44.8149 25.0604 44.7827 25.0604H43.6346L43.3204 24.9396H43.0304C42.8531 24.9396 42.684 24.9315 42.5228 24.9154C42.3698 24.8912 42.2126 24.8671 42.0515 24.8429C41.8984 24.8187 41.7373 24.7986 41.5681 24.7825C41.407 24.7583 41.2297 24.7462 41.0364 24.7462C40.9558 24.7462 40.8752 24.7825 40.7947 24.855C40.7141 24.9194 40.6295 24.9678 40.5409 25C40.3314 25.0161 40.1179 25.0443 39.9004 25.0846C39.6829 25.1249 39.4653 25.145 39.2478 25.145C39.1833 25.145 39.1068 25.1531 39.0182 25.1692C38.9296 25.1934 38.8248 25.2054 38.704 25.2054C38.6476 25.2054 38.5831 25.2014 38.5106 25.1934C38.4462 25.1853 38.3817 25.1571 38.3173 25.1088C38.1158 25.0282 38.0151 24.8671 38.0151 24.6254ZM61.8708 22.3896C61.8708 22.3333 61.8628 22.2607 61.8467 22.1721C61.8306 22.0835 61.8185 22.0231 61.8104 21.9908C61.7943 21.9667 61.754 21.9304 61.6896 21.8821C61.6251 21.8257 61.5889 21.7935 61.5808 21.7854C61.5405 21.7209 61.5083 21.6444 61.4841 21.5558C61.468 21.4672 61.4519 21.3906 61.4358 21.3262C61.4197 21.2698 61.3915 21.1892 61.3512 21.0845C61.319 20.9717 61.2948 20.9032 61.2787 20.879C61.2787 20.8629 61.2585 20.8267 61.2183 20.7703C61.178 20.7058 61.1498 20.6655 61.1337 20.6494L61.0732 20.5286C61.0732 20.5044 61.0813 20.452 61.0974 20.3715C61.1216 20.2909 61.1337 20.2466 61.1337 20.2385C61.1337 20.1982 61.1377 20.1177 61.1458 19.9968C61.1538 19.876 61.1578 19.7471 61.1578 19.6101C61.1578 19.4731 61.1538 19.3483 61.1458 19.2355C61.1377 19.1146 61.1337 19.03 61.1337 18.9817L61.2183 18.7521C61.2183 18.744 61.2183 18.7158 61.2183 18.6675C61.2263 18.6111 61.2344 18.5547 61.2424 18.4983C61.2505 18.4338 61.2585 18.3774 61.2666 18.3291C61.2747 18.2727 61.2787 18.2365 61.2787 18.2203C61.2948 18.1881 61.3391 18.1277 61.4116 18.0391C61.4841 17.9504 61.5405 17.886 61.5808 17.8457C61.5808 17.8376 61.5687 17.8094 61.5446 17.7611C61.5204 17.7047 61.5083 17.6644 61.5083 17.6403C61.5002 17.6403 61.4962 17.6362 61.4962 17.6282V17.604L61.5083 17.5557C61.5728 17.4429 61.6493 17.318 61.7379 17.181C61.8265 17.036 61.9272 16.9192 62.04 16.8306C62.1287 16.75 62.2133 16.6815 62.2938 16.6251C62.3824 16.5607 62.463 16.4801 62.5355 16.3834C62.608 16.2948 62.6685 16.1941 62.7168 16.0813C62.7732 15.9604 62.8376 15.8477 62.9102 15.7429C62.9102 15.7268 62.9182 15.7107 62.9343 15.6946C62.9504 15.6785 62.9666 15.6664 62.9827 15.6583C63.1599 15.5294 63.3412 15.3925 63.5265 15.2474C63.7118 15.0944 63.8971 14.9655 64.0824 14.8607C64.0905 14.8527 64.1146 14.8365 64.1549 14.8124C64.2032 14.7882 64.2516 14.764 64.2999 14.7399C64.3563 14.7157 64.4047 14.6956 64.4449 14.6794C64.4852 14.6553 64.5134 14.6392 64.5295 14.6311L64.8196 14.4015C64.8438 14.3934 64.8921 14.3894 64.9646 14.3894C65.0371 14.3813 65.1136 14.3733 65.1942 14.3652C65.2748 14.3572 65.3513 14.3531 65.4238 14.3531C65.4963 14.3451 65.5447 14.3411 65.5688 14.3411C65.5769 14.333 65.597 14.3209 65.6293 14.3048C65.6615 14.2887 65.6978 14.2726 65.738 14.2565C65.7783 14.2404 65.8146 14.2283 65.8468 14.2202C65.8871 14.2041 65.9113 14.196 65.9193 14.196C66.0563 14.1558 66.2094 14.1195 66.3785 14.0873C66.5558 14.047 66.7169 14.0269 66.8619 14.0269C67.0634 14.0269 67.2607 14.0671 67.4541 14.1477C67.6555 14.2202 67.8569 14.2766 68.0583 14.3169C68.2759 14.3652 68.4934 14.4136 68.7109 14.4619C68.9285 14.5022 69.142 14.5505 69.3514 14.6069C69.569 14.6633 69.7784 14.7358 69.9799 14.8245C70.1813 14.905 70.3787 15.0138 70.572 15.1508C70.5801 15.1588 70.6002 15.183 70.6324 15.2233C70.6647 15.2555 70.7009 15.2917 70.7412 15.332C70.7815 15.3723 70.8218 15.4126 70.8621 15.4529C70.9023 15.4851 70.9305 15.5052 70.9467 15.5133C70.9547 15.5214 70.999 15.5334 71.0796 15.5496C71.1682 15.5657 71.2206 15.5737 71.2367 15.5737C71.2689 15.5979 71.2931 15.6342 71.3092 15.6825C71.3253 15.7228 71.3374 15.7711 71.3455 15.8275C71.3616 15.8759 71.3737 15.9242 71.3817 15.9725C71.3978 16.0209 71.418 16.0612 71.4421 16.0934C71.4502 16.1014 71.4623 16.1216 71.4784 16.1538C71.5026 16.186 71.5267 16.2183 71.5509 16.2505C71.5831 16.2827 71.6073 16.3149 71.6234 16.3472C71.6476 16.3713 71.6637 16.3834 71.6718 16.3834L71.7322 16.7581C71.7563 16.7983 71.8047 16.8547 71.8772 16.9272C71.9578 16.9998 72.0101 17.0441 72.0343 17.0602V17.7249C72.0343 17.7812 72.0504 17.8497 72.0826 17.9303C72.1229 18.0109 72.1632 18.0955 72.2035 18.1841C72.2438 18.2727 72.2841 18.3613 72.3243 18.45C72.3646 18.5386 72.3928 18.6191 72.4089 18.6917C72.4331 18.8125 72.4492 18.9172 72.4573 19.0059C72.4653 19.0945 72.4734 19.1831 72.4814 19.2717C72.4895 19.3523 72.4935 19.4369 72.4935 19.5255C72.4935 19.6141 72.4935 19.7189 72.4935 19.8397V20.299C72.4935 20.3151 72.4814 20.3795 72.4573 20.4923C72.4331 20.597 72.417 20.6776 72.4089 20.734C72.3928 20.7823 72.3767 20.8428 72.3606 20.9153C72.3445 20.9878 72.3284 21.0603 72.3123 21.1328C72.3042 21.2053 72.2921 21.2698 72.276 21.3262C72.2679 21.3745 72.2639 21.3987 72.2639 21.3987C72.2478 21.4229 72.2156 21.4712 72.1672 21.5437C72.1189 21.6162 72.0625 21.6968 71.998 21.7854C71.9417 21.866 71.8853 21.9425 71.8289 22.015C71.7805 22.0795 71.7483 22.1198 71.7322 22.1359C71.7322 22.1439 71.7161 22.1721 71.6838 22.2205C71.6597 22.2688 71.6315 22.3252 71.5992 22.3896C71.567 22.446 71.5348 22.5024 71.5026 22.5588C71.4703 22.6072 71.4502 22.6394 71.4421 22.6555C71.3374 22.8005 71.2166 22.9375 71.0796 23.0664C70.9507 23.1873 70.8298 23.3162 70.717 23.4531C70.6445 23.5498 70.5962 23.6183 70.572 23.6586C70.5479 23.6989 70.4955 23.7552 70.4149 23.8278C70.3021 23.9164 70.1974 23.9849 70.1007 24.0332C70.004 24.0815 69.9073 24.1581 69.8107 24.2628C69.8107 24.2789 69.7946 24.3192 69.7623 24.3837C69.7301 24.4481 69.7059 24.4803 69.6898 24.4803C69.6737 24.4884 69.6455 24.4965 69.6052 24.5045C69.5649 24.5126 69.5166 24.5206 69.4602 24.5287C69.4119 24.5367 69.3635 24.5448 69.3152 24.5529C69.2749 24.5529 69.2467 24.5569 69.2306 24.5649C69.1823 24.5891 69.0936 24.6294 68.9647 24.6858C68.8439 24.7341 68.7109 24.7905 68.5659 24.855C68.429 24.9114 68.296 24.9678 68.1671 25.0242C68.0463 25.0886 67.9617 25.137 67.9133 25.1692H67.2003C66.4913 25.1692 65.7944 25.0443 65.1096 24.7946L64.9646 24.71C64.9485 24.6858 64.9283 24.6616 64.9042 24.6375C64.8558 24.5891 64.8276 24.5649 64.8196 24.5649C64.8115 24.5569 64.7874 24.5488 64.7471 24.5408C64.7148 24.5327 64.6786 24.5247 64.6383 24.5166C64.598 24.5085 64.5577 24.5005 64.5175 24.4924C64.4772 24.4844 64.453 24.4803 64.4449 24.4803C64.1549 24.4159 63.8931 24.3071 63.6594 24.1541C63.4338 24.001 63.2244 23.8278 63.031 23.6344C62.8376 23.441 62.6483 23.2396 62.463 23.0302C62.2777 22.8126 62.0803 22.6112 61.8708 22.4259V22.3896ZM64.6746 23.1027C64.6584 23.1268 64.6504 23.1591 64.6504 23.1993C64.6504 23.2638 64.6705 23.3202 64.7108 23.3685C64.7592 23.4169 64.8115 23.4612 64.8679 23.5015C64.9243 23.5337 64.9807 23.5659 65.0371 23.5981C65.1016 23.6304 65.1539 23.6586 65.1942 23.6827C65.2748 23.7472 65.3553 23.8197 65.4359 23.9003C65.5245 23.9728 65.6132 24.0453 65.7018 24.1178C65.7985 24.1823 65.8951 24.2386 65.9918 24.287C66.0885 24.3273 66.1973 24.3474 66.3181 24.3474C66.4067 24.3635 66.4913 24.3756 66.5719 24.3837C66.6525 24.3917 66.7371 24.3958 66.8257 24.3958C66.8982 24.3958 66.9667 24.3917 67.0311 24.3837C67.1036 24.3756 67.1721 24.3635 67.2366 24.3474L67.4662 24.2628L67.8046 24.2507L68.1429 24.2628C68.1591 24.2548 68.1792 24.2467 68.2034 24.2386C68.2356 24.2306 68.2638 24.2145 68.288 24.1903C68.3121 24.1742 68.3444 24.1581 68.3846 24.142C68.4249 24.1178 68.4652 24.0936 68.5055 24.0695C68.5458 24.0372 68.5901 24.005 68.6384 23.9728C68.6545 23.9647 68.6827 23.9406 68.723 23.9003C68.7714 23.8519 68.8197 23.8036 68.868 23.7552C68.9164 23.7069 68.9607 23.6626 69.001 23.6223C69.0413 23.574 69.0695 23.5458 69.0856 23.5377L69.3152 23.3927C69.3716 23.3363 69.4441 23.2598 69.5327 23.1631C69.6213 23.0583 69.7059 22.9496 69.7865 22.8368C69.8671 22.7159 69.9355 22.5991 69.9919 22.4863C70.0564 22.3735 70.0927 22.2769 70.1007 22.1963C70.1088 22.1721 70.1168 22.1359 70.1249 22.0875C70.141 22.0392 70.1531 21.9868 70.1611 21.9304C70.1692 21.874 70.1732 21.8257 70.1732 21.7854C70.1813 21.7371 70.1853 21.7089 70.1853 21.7008C70.2336 21.2416 70.2578 20.7944 70.2578 20.3594C70.2578 20.0129 70.2336 19.6705 70.1853 19.3322C70.1531 19.2838 70.1329 19.2314 70.1249 19.175C70.1249 19.1187 70.1249 19.0582 70.1249 18.9938V18.7037C70.1249 18.6232 70.1168 18.5627 70.1007 18.5225C70.0927 18.4258 70.0524 18.3412 69.9799 18.2687C69.9073 18.1881 69.851 18.1035 69.8107 18.0149C69.7462 17.8699 69.6938 17.7369 69.6536 17.6161C69.6213 17.4872 69.577 17.3502 69.5206 17.2052C69.5126 17.1891 69.5045 17.1689 69.4965 17.1448C69.4884 17.1206 69.4763 17.0924 69.4602 17.0602L69.2306 16.6735C69.2306 16.6654 69.2225 16.6211 69.2064 16.5405C69.1903 16.46 69.1782 16.4076 69.1702 16.3834C69.001 16.1498 68.7875 15.9766 68.5297 15.8638C68.2799 15.7429 68.0261 15.6261 67.7683 15.5133C67.7441 15.4972 67.6998 15.4811 67.6354 15.465C67.579 15.4489 67.5468 15.4408 67.5387 15.4408H67.0311L66.6565 15.3562H65.9193L65.4843 15.5737C65.3956 15.614 65.3191 15.6382 65.2546 15.6462C65.1902 15.6543 65.1217 15.6865 65.0492 15.7429C64.9122 15.8315 64.7793 15.9282 64.6504 16.033C64.5215 16.1296 64.3805 16.2263 64.2274 16.323C64.2194 16.323 64.2113 16.327 64.2032 16.3351C64.2032 16.3431 64.1952 16.3512 64.1791 16.3593C64.163 16.3673 64.1509 16.3754 64.1428 16.3834C64.1428 16.3995 64.1388 16.4277 64.1307 16.468C64.1307 16.5002 64.1267 16.5365 64.1187 16.5768C64.1106 16.6171 64.1025 16.6573 64.0945 16.6976C64.0945 16.7299 64.0905 16.75 64.0824 16.7581L63.9374 16.9031C63.9132 16.9353 63.885 16.9836 63.8528 17.0481C63.8286 17.1045 63.8004 17.1649 63.7682 17.2294C63.736 17.2858 63.7078 17.3422 63.6836 17.3986C63.6675 17.4469 63.6554 17.4791 63.6473 17.4952V17.8457C63.6393 17.8618 63.6272 17.894 63.6111 17.9424C63.595 17.9907 63.5789 18.0391 63.5627 18.0874C63.5466 18.1357 63.5305 18.1841 63.5144 18.2324C63.5063 18.2727 63.5023 18.2969 63.5023 18.3049V18.4137L63.6473 19.1267C63.6473 19.2153 63.6232 19.2919 63.5748 19.3563C63.5265 19.4127 63.5023 19.4893 63.5023 19.5859C63.5023 19.8438 63.5426 20.0693 63.6232 20.2627C63.7037 20.448 63.7601 20.6534 63.7924 20.879L63.9374 22.1963L64.0824 22.4259C64.0905 22.434 64.1025 22.4622 64.1187 22.5105C64.1267 22.5347 64.1348 22.5548 64.1428 22.5709L64.6746 23.1027ZM76.3245 19.4651C76.3083 19.4409 76.2802 19.3926 76.2399 19.3201C76.1996 19.2476 76.1794 19.2032 76.1794 19.1871C76.1633 19.1549 76.1472 19.0945 76.1311 19.0059C76.123 18.9092 76.119 18.8528 76.119 18.8367C76.1029 18.8125 76.0626 18.7642 75.9982 18.6917C75.9337 18.6191 75.9015 18.5748 75.9015 18.5587C75.8934 18.5507 75.8813 18.5265 75.8652 18.4862C75.8572 18.4459 75.8451 18.4016 75.829 18.3533C75.8209 18.3049 75.8088 18.2606 75.7927 18.2203C75.7847 18.1801 75.7806 18.1559 75.7806 18.1478C75.7726 18.1398 75.7565 18.1156 75.7323 18.0753C75.7162 18.035 75.696 17.9907 75.6719 17.9424C75.6477 17.894 75.6235 17.8497 75.5994 17.8094C75.5833 17.7692 75.5752 17.741 75.5752 17.7249C75.4946 17.5959 75.4463 17.463 75.4302 17.326C75.4141 17.181 75.3859 17.04 75.3456 16.9031C75.2811 16.6855 75.2167 16.468 75.1522 16.2505C75.0958 16.0249 75.0273 15.8114 74.9468 15.61C74.9307 15.5778 74.8944 15.5496 74.838 15.5254C74.7816 15.5012 74.7454 15.4811 74.7292 15.465C74.6084 15.4166 74.4674 15.3763 74.3063 15.3441C74.1532 15.3038 74.0082 15.2555 73.8712 15.1991C73.7423 15.1427 73.6295 15.0662 73.5328 14.9695C73.4442 14.8647 73.3999 14.7238 73.3999 14.5465C73.3999 14.4015 73.4563 14.2927 73.5691 14.2202C73.6899 14.1477 73.8188 14.1115 73.9558 14.1115H74.1008L74.403 14.1477H74.7172C74.7897 14.1477 74.8622 14.1558 74.9347 14.1719C75.0153 14.1799 75.0878 14.2001 75.1522 14.2323C75.2086 14.2323 75.3053 14.2283 75.4423 14.2202C75.5873 14.2122 75.7404 14.2081 75.9015 14.2081C76.0626 14.2081 76.2117 14.2122 76.3486 14.2202C76.4856 14.2283 76.5863 14.2323 76.6508 14.2323C76.6588 14.2323 76.687 14.2363 76.7354 14.2444C76.7837 14.2444 76.8361 14.2484 76.8925 14.2565C76.9489 14.2645 77.0052 14.2726 77.0616 14.2806C77.118 14.2887 77.1624 14.2927 77.1946 14.2927C77.2188 14.2927 77.2671 14.3048 77.3396 14.329C77.4121 14.3451 77.4564 14.3612 77.4725 14.3773C77.5289 14.3854 77.5974 14.3894 77.678 14.3894C77.7585 14.3894 77.8351 14.3975 77.9076 14.4136C77.9801 14.4297 78.0405 14.4619 78.0889 14.5103C78.1372 14.5505 78.1614 14.611 78.1614 14.6915C78.1614 14.8527 78.1171 14.9655 78.0284 15.0299C77.9479 15.0944 77.8593 15.1709 77.7626 15.2595C77.7223 15.2917 77.6699 15.3401 77.6055 15.4045C77.5491 15.4609 77.4886 15.5214 77.4242 15.5858C77.3597 15.6503 77.3033 15.7188 77.255 15.7913C77.2147 15.8557 77.1946 15.9081 77.1946 15.9484C77.1946 16.0773 77.2308 16.2062 77.3033 16.3351C77.3759 16.464 77.4323 16.5929 77.4725 16.7218C77.4967 16.7701 77.5289 16.8386 77.5692 16.9272C77.6095 17.0159 77.6458 17.1045 77.678 17.1931C77.7183 17.2737 77.7505 17.3462 77.7747 17.4106C77.7988 17.4751 77.8109 17.5114 77.8109 17.5194C77.819 17.5355 77.827 17.5677 77.8351 17.6161C77.8431 17.6644 77.8512 17.7168 77.8593 17.7732C77.8673 17.8215 77.8713 17.8699 77.8713 17.9182C77.8794 17.9666 77.8875 17.9988 77.8955 18.0149C77.9036 18.031 77.9237 18.0753 77.9559 18.1478C77.9962 18.2203 78.0164 18.2687 78.0164 18.2928C78.0325 18.3251 78.0607 18.3936 78.101 18.4983C78.1412 18.603 78.1614 18.6675 78.1614 18.6917L78.2218 19.1025C78.2782 19.2878 78.3467 19.4691 78.4272 19.6464C78.5159 19.8236 78.5884 20.0129 78.6448 20.2144C78.6528 20.2224 78.6609 20.2506 78.6689 20.299C78.6851 20.3473 78.7012 20.4037 78.7173 20.4681C78.7334 20.5245 78.7455 20.5809 78.7535 20.6373C78.7697 20.6937 78.7817 20.734 78.7898 20.7582C78.814 20.8468 78.8301 20.9314 78.8381 21.012C78.8462 21.0925 78.8623 21.165 78.8865 21.2295C78.9187 21.2939 78.963 21.3463 79.0194 21.3866C79.0758 21.4269 79.1604 21.447 79.2732 21.447C79.3618 21.447 79.4424 21.443 79.5149 21.4349C79.5874 21.4269 79.668 21.3906 79.7566 21.3262C79.7727 21.2859 79.8049 21.2255 79.8533 21.1449C79.9016 21.0563 79.95 20.9636 79.9983 20.8669C80.0547 20.7703 80.103 20.6776 80.1433 20.589C80.1917 20.5004 80.2198 20.4359 80.2279 20.3956C80.236 20.3876 80.244 20.3473 80.2521 20.2748C80.2682 20.2023 80.2843 20.1257 80.3004 20.0452C80.3165 19.9565 80.3286 19.876 80.3367 19.8035C80.3528 19.731 80.3608 19.6866 80.3608 19.6705C80.4092 19.4611 80.4897 19.2717 80.6025 19.1025C80.7234 18.9253 80.8281 18.744 80.9167 18.5587C80.9167 18.5426 80.9248 18.5104 80.9409 18.462C80.957 18.4056 80.9731 18.3694 80.9893 18.3533C80.9893 18.3452 80.9933 18.313 81.0013 18.2566C81.0175 18.2002 81.0336 18.1398 81.0497 18.0753C81.0658 18.0109 81.0819 17.9545 81.098 17.9061C81.1141 17.8497 81.1262 17.8175 81.1343 17.8094C81.1343 17.7853 81.1383 17.7571 81.1464 17.7249C81.1625 17.6846 81.1786 17.6644 81.1947 17.6644C81.1947 17.6483 81.2148 17.6362 81.2551 17.6282C81.2954 17.6201 81.3236 17.6121 81.3397 17.604C81.3397 17.5959 81.3397 17.5718 81.3397 17.5315C81.3478 17.4912 81.3518 17.4509 81.3518 17.4106C81.3599 17.3704 81.3679 17.3341 81.376 17.3019C81.384 17.2697 81.3921 17.2495 81.4001 17.2415C81.4163 17.1448 81.4404 17.04 81.4727 16.9272C81.5129 16.8145 81.5532 16.6976 81.5935 16.5768C81.6338 16.4559 81.666 16.3391 81.6902 16.2263C81.7224 16.1055 81.7385 15.9967 81.7385 15.9C81.7385 15.7953 81.7345 15.7188 81.7264 15.6704C81.7184 15.614 81.6982 15.5737 81.666 15.5496C81.6418 15.5173 81.6016 15.4932 81.5452 15.4771C81.4968 15.4609 81.4283 15.4368 81.3397 15.4045C81.1544 15.3401 80.9893 15.2515 80.8442 15.1387C80.6992 15.0259 80.6267 14.8688 80.6267 14.6674C80.6267 14.6271 80.6307 14.5948 80.6388 14.5707C80.6388 14.5465 80.6428 14.5264 80.6509 14.5103C80.667 14.47 80.7153 14.4176 80.7959 14.3531C80.8845 14.2887 80.949 14.2484 80.9893 14.2323C80.9973 14.2323 81.0134 14.2283 81.0376 14.2202C81.0537 14.2202 81.0698 14.2202 81.0859 14.2202C81.1021 14.2122 81.1182 14.2081 81.1343 14.2081L82.0286 14.2927C82.1252 14.2927 82.1937 14.2847 82.234 14.2686C82.2823 14.2524 82.3186 14.2363 82.3428 14.2202C82.375 14.2041 82.4032 14.188 82.4274 14.1719C82.4596 14.1558 82.4999 14.1477 82.5482 14.1477C82.6207 14.1477 82.6932 14.1678 82.7657 14.2081C82.8383 14.2484 82.9067 14.2766 82.9712 14.2927H84.083C84.1072 14.2927 84.1394 14.2968 84.1797 14.3048C84.228 14.3048 84.2764 14.3088 84.3247 14.3169C84.373 14.325 84.4174 14.337 84.4576 14.3531C84.506 14.3612 84.5382 14.3693 84.5543 14.3773C84.5946 14.3934 84.6188 14.4176 84.6268 14.4498C84.6349 14.4821 84.6389 14.5143 84.6389 14.5465V14.6069C84.6389 14.752 84.5825 14.8809 84.4697 14.9937C84.365 15.0984 84.2361 15.1951 84.083 15.2837C83.938 15.3723 83.7849 15.4569 83.6238 15.5375C83.4626 15.618 83.3337 15.7067 83.2371 15.8033C83.092 15.9484 82.9833 16.1216 82.9108 16.323C82.8463 16.5244 82.7819 16.7178 82.7174 16.9031C82.7013 16.9192 82.6731 16.9675 82.6328 17.0481C82.5925 17.1206 82.5724 17.1649 82.5724 17.181L82.512 17.604C82.4878 17.6121 82.4354 17.6362 82.3549 17.6765C82.2743 17.7087 82.23 17.7249 82.2219 17.7249C82.2058 17.7329 82.1816 17.7812 82.1494 17.8699C82.1172 17.9504 82.0809 18.0431 82.0406 18.1478C82.0084 18.2445 81.9722 18.3412 81.9319 18.4379C81.8997 18.5265 81.8755 18.5869 81.8594 18.6191C81.8513 18.6594 81.8312 18.7239 81.799 18.8125C81.7748 18.9011 81.7546 18.9575 81.7385 18.9817C81.7224 18.9897 81.6982 19.0341 81.666 19.1146C81.6338 19.1871 81.6096 19.2314 81.5935 19.2476L81.5452 19.7914L81.4001 20.0693C81.384 20.0774 81.3679 20.1257 81.3518 20.2144C81.3438 20.2949 81.3397 20.3433 81.3397 20.3594C81.3075 20.448 81.2592 20.5286 81.1947 20.6011C81.1302 20.6655 81.0819 20.7461 81.0497 20.8428C81.0497 20.8428 81.0457 20.8629 81.0376 20.9032C81.0295 20.9435 81.0215 20.9878 81.0134 21.0361C81.0134 21.0764 81.0094 21.1207 81.0013 21.1691C80.9933 21.2094 80.9893 21.2335 80.9893 21.2416C80.9731 21.2496 80.9449 21.2819 80.9047 21.3383C80.8724 21.3947 80.8563 21.4309 80.8563 21.447C80.7838 21.5518 80.7395 21.6484 80.7234 21.7371C80.7153 21.8176 80.6912 21.9224 80.6509 22.0513C80.6428 22.0674 80.6307 22.0916 80.6146 22.1238C80.5985 22.156 80.5824 22.1923 80.5663 22.2325C80.5502 22.2728 80.5341 22.3091 80.5179 22.3413C80.5099 22.3735 80.5059 22.3937 80.5059 22.4017C80.4656 22.4984 80.4333 22.5951 80.4092 22.6918C80.385 22.7885 80.3488 22.8811 80.3004 22.9697C80.2843 22.9697 80.2561 22.9979 80.2158 23.0543C80.1836 23.1107 80.1675 23.147 80.1675 23.1631C80.1594 23.1792 80.1433 23.2195 80.1191 23.2839C80.103 23.3403 80.0829 23.4008 80.0587 23.4652C80.0345 23.5297 80.0144 23.5941 79.9983 23.6586C79.9822 23.715 79.9701 23.7512 79.962 23.7673C79.962 23.7834 79.9379 23.8197 79.8895 23.8761C79.8412 23.9325 79.817 23.9647 79.817 23.9728C79.8009 24.005 79.7848 24.0372 79.7687 24.0695C79.7606 24.0936 79.7566 24.1097 79.7566 24.1178C79.7485 24.1339 79.7405 24.1661 79.7324 24.2145C79.7244 24.2628 79.7163 24.3152 79.7083 24.3716C79.7002 24.428 79.6921 24.4803 79.6841 24.5287C79.6841 24.577 79.6841 24.6093 79.6841 24.6254C79.676 24.6254 79.6478 24.6576 79.5995 24.722C79.5511 24.7784 79.5189 24.8228 79.5028 24.855C79.4625 24.9355 79.4222 25 79.382 25.0483C79.3497 25.1047 79.3094 25.149 79.2611 25.1813C79.2208 25.2216 79.1685 25.2498 79.104 25.2659C79.0396 25.282 78.955 25.29 78.8502 25.29C78.7455 25.29 78.6287 25.2578 78.4998 25.1934C78.3708 25.1289 78.2782 25.0524 78.2218 24.9637C78.2218 24.9476 78.2178 24.9235 78.2097 24.8912C78.2017 24.859 78.1936 24.8228 78.1855 24.7825C78.1775 24.7422 78.1694 24.6898 78.1614 24.6254C78.1614 24.6093 78.1493 24.5811 78.1251 24.5408C78.109 24.4924 78.0889 24.4441 78.0647 24.3958C78.0405 24.3474 78.0164 24.3031 77.9922 24.2628C77.968 24.2225 77.9559 24.1984 77.9559 24.1903C77.8995 24.0775 77.8713 23.9849 77.8713 23.9124C77.8713 23.8398 77.8512 23.7271 77.8109 23.574C77.7465 23.2678 77.6578 22.9657 77.545 22.6676C77.4403 22.3695 77.3235 22.0795 77.1946 21.7975L76.9891 21.3624C76.9891 21.3544 76.9851 21.3302 76.9771 21.2899C76.9771 21.2496 76.973 21.2053 76.965 21.157C76.9569 21.1086 76.9489 21.0643 76.9408 21.024C76.9408 20.9838 76.9368 20.9556 76.9287 20.9395L76.9045 20.8911C76.8965 20.875 76.8844 20.8589 76.8683 20.8428C76.8522 20.8186 76.8159 20.7703 76.7595 20.6978C76.7031 20.6252 76.6669 20.5809 76.6508 20.5648C76.6185 20.4843 76.5984 20.4077 76.5903 20.3352C76.5823 20.2546 76.5702 20.1821 76.5541 20.1177C76.546 20.0452 76.5259 19.9807 76.4937 19.9243C76.4614 19.8679 76.405 19.8236 76.3245 19.7914V19.4651ZM85.3278 24.6495C85.3278 24.4884 85.3801 24.3796 85.4849 24.3232C85.5896 24.2588 85.7185 24.2145 85.8716 24.1903C86.0247 24.1661 86.1818 24.146 86.3429 24.1299C86.504 24.1138 86.641 24.0695 86.7538 23.9969C86.7618 23.9889 86.7699 23.9768 86.778 23.9607C86.8021 23.9365 86.8142 23.9204 86.8142 23.9124C86.8384 23.8801 86.8706 23.8278 86.9109 23.7552C86.9592 23.6827 87.0035 23.6102 87.0438 23.5377C87.0922 23.4572 87.1365 23.3846 87.1768 23.3202C87.217 23.2477 87.2412 23.1993 87.2493 23.1752C87.2896 23.1107 87.3137 23.0463 87.3218 22.9818C87.3298 22.9093 87.3339 22.8005 87.3339 22.6555C87.3339 22.5669 87.3258 22.4944 87.3097 22.438C87.2936 22.3816 87.2775 22.3292 87.2614 22.2809C87.2452 22.2325 87.2291 22.1842 87.213 22.1359C87.1969 22.0795 87.1888 22.015 87.1888 21.9425L87.4185 20.734C87.4185 20.7018 87.4104 20.6494 87.3943 20.5769C87.3862 20.4963 87.3661 20.3594 87.3339 20.166V19.5859C87.3177 19.5618 87.2896 19.4973 87.2493 19.3926C87.209 19.2798 87.1888 19.1912 87.1888 19.1267C87.2533 18.9253 87.2936 18.7279 87.3097 18.5345C87.3258 18.3331 87.3339 18.1277 87.3339 17.9182V17.5194L87.2493 17.1448C87.2332 17.0481 87.2251 16.9514 87.2251 16.8547C87.2251 16.75 87.2251 16.6493 87.2251 16.5526C87.2251 16.464 87.2251 16.3713 87.2251 16.2747C87.2251 16.178 87.2332 16.0773 87.2493 15.9725C87.2332 15.8839 87.1808 15.7993 87.0922 15.7188C87.0035 15.6301 86.9391 15.5657 86.8988 15.5254C86.7377 15.4126 86.5645 15.3522 86.3792 15.3441C86.2019 15.3361 86.0327 15.324 85.8716 15.3079C85.7185 15.2917 85.5896 15.2434 85.4849 15.1628C85.3801 15.0742 85.3278 14.897 85.3278 14.6311C85.3278 14.47 85.3962 14.3652 85.5332 14.3169C85.6702 14.2605 85.8031 14.2242 85.932 14.2081H86.6208C86.9915 14.2081 87.354 14.2041 87.7085 14.196C88.071 14.188 88.4336 14.1638 88.7961 14.1235C88.8525 14.0833 88.921 14.0591 89.0016 14.051C89.0822 14.043 89.1667 14.0389 89.2554 14.0389H90.053C90.0691 14.0389 90.0973 14.043 90.1376 14.051C90.1859 14.0591 90.2343 14.0712 90.2826 14.0873C90.3309 14.0953 90.3752 14.1034 90.4155 14.1115C90.4558 14.1195 90.48 14.1235 90.488 14.1235C90.6008 14.1235 90.7177 14.1356 90.8385 14.1598C90.9594 14.1759 91.0198 14.2162 91.0198 14.2806C91.0278 14.3209 91.0359 14.3612 91.0439 14.4015C91.052 14.4337 91.056 14.47 91.056 14.5103C91.056 14.5586 91.052 14.611 91.0439 14.6674C91.0359 14.7157 91.0278 14.76 91.0198 14.8003C91.0037 14.8406 90.9634 14.8809 90.8989 14.9211C90.8425 14.9534 90.7781 14.9856 90.7056 15.0178C90.6331 15.05 90.5605 15.0782 90.488 15.1024C90.4155 15.1185 90.3672 15.1346 90.343 15.1508L89.908 15.5254C89.8435 15.5657 89.7629 15.5939 89.6663 15.61C89.5696 15.6261 89.5011 15.6744 89.4608 15.755C89.4528 15.7711 89.4286 15.8154 89.3883 15.8879C89.3561 15.9604 89.3319 16.0168 89.3158 16.0571C89.3077 16.0732 89.2957 16.1135 89.2795 16.178C89.2715 16.2102 89.2634 16.2384 89.2554 16.2626V17.3744C89.2554 17.3905 89.2634 17.4348 89.2795 17.5073C89.2957 17.5718 89.3077 17.6523 89.3158 17.749C89.3158 17.7651 89.3077 17.8014 89.2916 17.8578C89.2755 17.9142 89.2554 17.9746 89.2312 18.0391C89.2151 18.1035 89.199 18.1639 89.1829 18.2203C89.1748 18.2767 89.1708 18.313 89.1708 18.3291V19.3563L89.0862 20.734L89.3158 21.7975V22.16C89.3158 22.1761 89.3037 22.2285 89.2795 22.3171C89.2634 22.4058 89.2554 22.4702 89.2554 22.5105C89.2554 22.5347 89.2675 22.579 89.2916 22.6434C89.3239 22.6998 89.3561 22.7603 89.3883 22.8247C89.4286 22.8892 89.4648 22.9496 89.4971 23.006C89.5293 23.0624 89.5454 23.0986 89.5454 23.1147C89.5696 23.1873 89.5857 23.2759 89.5938 23.3806C89.6099 23.4773 89.63 23.574 89.6542 23.6707C89.6864 23.7593 89.7307 23.8358 89.7871 23.9003C89.8516 23.9647 89.9402 23.9969 90.053 23.9969C90.1416 23.9969 90.2181 23.9849 90.2826 23.9607C90.347 23.9285 90.4155 23.9124 90.488 23.9124C90.5444 23.9124 90.6169 23.9204 90.7056 23.9365C90.8022 23.9526 90.8949 23.9808 90.9835 24.0211C91.0721 24.0533 91.1487 24.1017 91.2131 24.1661C91.2776 24.2225 91.3098 24.291 91.3098 24.3716C91.3098 24.5005 91.2776 24.6093 91.2131 24.6979C91.1567 24.7784 91.0802 24.8469 90.9835 24.9033C90.8949 24.9517 90.7942 24.9839 90.6814 25C90.5686 25.0242 90.4639 25.0363 90.3672 25.0363L89.0499 24.9637H88.7115C88.6954 24.9637 88.6471 24.9758 88.5665 25C88.486 25.0242 88.4376 25.0363 88.4215 25.0363H87.1888L86.6692 25.1088H86.2946C86.2059 25.1088 86.1052 25.1047 85.9924 25.0967C85.8877 25.0967 85.783 25.0806 85.6782 25.0483C85.5815 25.0242 85.4969 24.9799 85.4244 24.9154C85.36 24.851 85.3278 24.7623 85.3278 24.6495ZM93.1346 24.4803C93.1346 24.3112 93.1749 24.1782 93.2555 24.0815C93.3361 23.9768 93.4327 23.8922 93.5455 23.8278C93.6664 23.7633 93.7953 23.7029 93.9323 23.6465C94.0692 23.582 94.1941 23.5055 94.3069 23.4169C94.4277 23.3282 94.5284 23.2114 94.609 23.0664C94.6896 22.9214 94.7299 22.728 94.7299 22.4863C94.7299 22.4219 94.7299 22.3615 94.7299 22.3051C94.7299 22.2406 94.7218 22.1761 94.7057 22.1117C94.6815 21.9667 94.6694 21.8136 94.6694 21.6525C94.6694 21.5236 94.6815 21.3906 94.7057 21.2537C94.7218 21.1892 94.7299 21.1328 94.7299 21.0845C94.7299 21.0281 94.7299 20.9677 94.7299 20.9032C94.7299 20.8146 94.7258 20.734 94.7178 20.6615C94.7097 20.589 94.6976 20.5084 94.6815 20.4198C94.6735 20.3312 94.6654 20.2385 94.6573 20.1418C94.6493 20.0452 94.6453 19.9485 94.6453 19.8518C94.6453 19.7632 94.6493 19.6786 94.6573 19.598C94.6654 19.5094 94.6735 19.4208 94.6815 19.3322C94.6976 19.2435 94.7137 19.1589 94.7299 19.0784C94.746 18.9897 94.754 18.9011 94.754 18.8125C94.754 18.6675 94.7379 18.5225 94.7057 18.3774C94.6815 18.2244 94.6533 18.0753 94.6211 17.9303C94.5889 17.8094 94.5607 17.6846 94.5365 17.5557C94.5204 17.4187 94.5123 17.2858 94.5123 17.1569C94.5123 17.1085 94.5164 17.0642 94.5244 17.0239C94.5325 16.9756 94.5446 16.9313 94.5607 16.891C94.5848 16.8104 94.5969 16.7258 94.5969 16.6372C94.5969 16.6292 94.5929 16.6251 94.5848 16.6251C94.5848 16.6171 94.5848 16.605 94.5848 16.5889V16.5526C94.5768 16.5284 94.5607 16.4962 94.5365 16.4559C94.5204 16.4076 94.5002 16.3633 94.4761 16.323C94.4519 16.2747 94.4277 16.2303 94.4036 16.1901C94.3875 16.1498 94.3754 16.1256 94.3673 16.1176C94.3351 16.0853 94.2787 16.0289 94.1981 15.9484C94.1176 15.8597 94.033 15.7711 93.9443 15.6825C93.8557 15.5858 93.7671 15.4972 93.6785 15.4166C93.5979 15.3361 93.5415 15.2837 93.5093 15.2595C93.5012 15.2434 93.4851 15.2192 93.4609 15.187C93.4448 15.1548 93.4368 15.1306 93.4368 15.1145C93.4368 14.9534 93.4972 14.8043 93.618 14.6674C93.7389 14.5304 93.8638 14.4418 93.9927 14.4015C94.0491 14.3773 94.1216 14.3491 94.2102 14.3169C94.3069 14.2847 94.3995 14.2565 94.4882 14.2323C94.5848 14.2001 94.6694 14.1719 94.7419 14.1477C94.8145 14.1235 94.8588 14.1115 94.8749 14.1115C94.891 14.1115 94.9313 14.1074 94.9957 14.0994C95.0602 14.0913 95.1085 14.0873 95.1407 14.0873C95.2535 14.0873 95.3583 14.0994 95.455 14.1235C95.5597 14.1477 95.6644 14.1719 95.7692 14.196C95.8336 14.2041 95.9021 14.2162 95.9746 14.2323C96.0471 14.2484 96.1196 14.2565 96.1921 14.2565C96.2646 14.2565 96.3291 14.2524 96.3855 14.2444C96.4419 14.2363 96.5023 14.2242 96.5668 14.2081C96.6232 14.2001 96.6796 14.192 96.736 14.184C96.7924 14.1759 96.8528 14.1719 96.9172 14.1719C97.0703 14.1719 97.2113 14.196 97.3402 14.2444C97.4691 14.2927 97.6021 14.3169 97.739 14.3169C97.7471 14.3169 97.7753 14.3209 97.8236 14.329C97.8719 14.329 97.9243 14.329 97.9807 14.329C98.0452 14.329 98.1056 14.333 98.162 14.3411C98.2264 14.3411 98.2788 14.3411 98.3191 14.3411C98.7058 14.3411 99.0885 14.3169 99.4672 14.2686C99.8539 14.2202 100.241 14.188 100.627 14.1719C100.668 14.1396 100.7 14.1235 100.724 14.1235C100.756 14.1155 100.801 14.1115 100.857 14.1115C101.066 14.2001 101.224 14.3169 101.328 14.4619C101.433 14.6069 101.51 14.7761 101.558 14.9695C101.558 14.9856 101.558 15.0178 101.558 15.0662C101.566 15.1145 101.574 15.1669 101.582 15.2233C101.59 15.2797 101.598 15.332 101.606 15.3804C101.614 15.4287 101.622 15.4569 101.63 15.465C101.63 15.473 101.634 15.4891 101.642 15.5133C101.651 15.5294 101.659 15.5737 101.667 15.6462C101.675 15.7107 101.683 15.8033 101.691 15.9242C101.699 16.045 101.707 16.2062 101.715 16.4076C101.715 16.5123 101.659 16.5969 101.546 16.6614C101.441 16.7258 101.344 16.7581 101.256 16.7581C101.167 16.7581 101.095 16.75 101.038 16.7339C100.982 16.7178 100.929 16.6936 100.881 16.6614C100.833 16.6292 100.784 16.5929 100.736 16.5526C100.688 16.5043 100.627 16.4559 100.555 16.4076C100.547 16.4076 100.523 16.3995 100.482 16.3834C100.45 16.3593 100.426 16.3391 100.41 16.323C100.402 16.323 100.365 16.319 100.301 16.3109C100.237 16.2948 100.196 16.2787 100.18 16.2626C100.019 16.1981 99.8901 16.1095 99.7935 15.9967C99.7048 15.8759 99.5961 15.7469 99.4672 15.61C99.4269 15.61 99.3624 15.61 99.2738 15.61C99.1932 15.6019 99.1006 15.5939 98.9958 15.5858C98.8992 15.5778 98.8065 15.5697 98.7179 15.5616C98.6293 15.5536 98.5688 15.5415 98.5366 15.5254C98.5205 15.5254 98.4722 15.5052 98.3916 15.465C98.311 15.4247 98.2587 15.4045 98.2345 15.4045C98.2264 15.3884 98.1781 15.3804 98.0895 15.3804C98.0089 15.3804 97.9485 15.3804 97.9082 15.3804C97.7471 15.3804 97.6101 15.4086 97.4973 15.465C97.3845 15.5214 97.2878 15.5979 97.2073 15.6946C97.1267 15.7913 97.0582 15.9041 97.0018 16.033C96.9535 16.1538 96.9132 16.2787 96.881 16.4076C96.881 16.4237 96.8689 16.472 96.8447 16.5526C96.8286 16.6332 96.8125 16.6896 96.7964 16.7218C96.7964 16.7379 96.8004 16.7621 96.8085 16.7943C96.8246 16.8185 96.8488 16.9071 96.881 17.0602C96.881 17.3099 96.8447 17.5597 96.7722 17.8094C96.7078 18.0511 96.6755 18.3009 96.6755 18.5587C96.6755 18.6312 96.6997 18.6876 96.748 18.7279C96.7964 18.7682 96.8528 18.7964 96.9172 18.8125C96.9897 18.8286 97.0623 18.8407 97.1348 18.8488C97.2153 18.8488 97.2838 18.8488 97.3402 18.8488H97.6182C97.6584 18.8488 97.7108 18.8447 97.7753 18.8367C97.8478 18.8286 97.9163 18.8206 97.9807 18.8125C98.0452 18.8044 98.1016 18.7964 98.1499 18.7883C98.2063 18.7803 98.2345 18.7722 98.2345 18.7642C98.2426 18.7642 98.2667 18.7521 98.307 18.7279C98.3473 18.6957 98.3876 18.6635 98.4279 18.6312C98.4762 18.5909 98.5245 18.5507 98.5729 18.5104C98.6212 18.4701 98.6575 18.4379 98.6816 18.4137C98.7058 18.3895 98.734 18.3613 98.7662 18.3291C98.8065 18.2969 98.8428 18.2646 98.875 18.2324C98.9153 18.1921 98.9475 18.1559 98.9717 18.1237C99.0039 18.0914 99.024 18.0713 99.0321 18.0632C99.1046 17.9666 99.1409 17.8618 99.1409 17.749C99.1489 17.6362 99.157 17.5355 99.165 17.4469C99.1812 17.3502 99.2174 17.2737 99.2738 17.2173C99.3302 17.1528 99.447 17.1206 99.6243 17.1206C99.8579 17.1206 100.023 17.1931 100.12 17.3381C100.216 17.4832 100.265 17.6685 100.265 17.894C100.265 18.031 100.249 18.1398 100.216 18.2203C100.184 18.3009 100.148 18.3734 100.108 18.4379C100.075 18.5023 100.043 18.5708 100.011 18.6433C99.9868 18.7158 99.9747 18.8085 99.9747 18.9213C99.9747 19.026 99.9949 19.1146 100.035 19.1871C100.075 19.2516 100.104 19.3281 100.12 19.4167L100.18 20.2144C100.188 20.2224 100.196 20.2466 100.204 20.2869C100.22 20.3271 100.237 20.3755 100.253 20.4319C100.269 20.4802 100.285 20.5326 100.301 20.589C100.317 20.6373 100.325 20.6776 100.325 20.7098C100.317 20.7501 100.309 20.7985 100.301 20.8549C100.301 20.9113 100.297 20.9677 100.289 21.024C100.281 21.0885 100.273 21.153 100.265 21.2174C100.257 21.2416 100.237 21.2738 100.204 21.3141C100.172 21.3463 100.132 21.3826 100.083 21.4229C100.043 21.4551 99.9989 21.4873 99.9506 21.5195C99.9022 21.5518 99.8619 21.5679 99.8297 21.5679C99.7975 21.5679 99.7572 21.5679 99.7089 21.5679C99.6605 21.5598 99.6323 21.5397 99.6243 21.5074C99.6082 21.4913 99.592 21.443 99.5759 21.3624C99.5598 21.2819 99.5518 21.2335 99.5518 21.2174C99.5115 21.1449 99.4591 21.0563 99.3947 20.9515C99.3302 20.8468 99.2577 20.738 99.1771 20.6252C99.0966 20.5044 99.0079 20.3876 98.9113 20.2748C98.8146 20.162 98.7179 20.0653 98.6212 19.9847C98.5326 19.9203 98.4359 19.884 98.3312 19.876C98.2345 19.8599 98.1539 19.8518 98.0895 19.8518L97.6182 20.0089C97.6021 20.0089 97.5618 19.9968 97.4973 19.9727C97.4409 19.9485 97.4006 19.9364 97.3765 19.9364H97.3281C97.312 19.9364 97.2999 19.9364 97.2919 19.9364C97.2838 19.9283 97.2717 19.9243 97.2556 19.9243C97.2153 19.9243 97.163 19.9485 97.0985 19.9968C97.0341 20.0452 96.9696 20.1056 96.9052 20.1781C96.8488 20.2426 96.7964 20.311 96.748 20.3835C96.6997 20.4561 96.6755 20.5165 96.6755 20.5648C96.6755 20.5809 96.6715 20.6333 96.6635 20.7219C96.6554 20.8025 96.6514 20.871 96.6514 20.9274C96.6514 20.9435 96.6514 20.9677 96.6514 20.9999C96.6514 21.0321 96.6554 21.0643 96.6635 21.0966C96.6635 21.1288 96.6675 21.1691 96.6755 21.2174C96.6755 21.2819 96.6876 21.3987 96.7118 21.5679C96.736 21.729 96.7642 21.9022 96.7964 22.0875C96.8286 22.2648 96.8568 22.438 96.881 22.6072C96.9132 22.7683 96.9333 22.8811 96.9414 22.9456C97.0542 23.0664 97.1348 23.1792 97.1831 23.2839C97.2314 23.3806 97.2758 23.4692 97.316 23.5498C97.3644 23.6304 97.4288 23.6948 97.5094 23.7432C97.598 23.7834 97.735 23.8036 97.9203 23.8036C98.1217 23.8036 98.3191 23.7834 98.5125 23.7432C98.7139 23.7029 98.9153 23.6747 99.1167 23.6586H99.4067C99.4229 23.6586 99.4672 23.6384 99.5397 23.5981C99.6202 23.5579 99.6686 23.5297 99.6847 23.5135L99.9747 23.4531C100.007 23.437 100.047 23.4249 100.096 23.4169C100.152 23.4008 100.18 23.3846 100.18 23.3685C100.204 23.3524 100.265 23.3081 100.361 23.2356C100.458 23.155 100.523 23.1107 100.555 23.1027C100.635 23.0382 100.72 23.002 100.809 22.9939C100.897 22.9778 100.974 22.9375 101.038 22.873C101.135 22.7925 101.228 22.7039 101.316 22.6072C101.413 22.5024 101.51 22.4058 101.606 22.3171C101.703 22.2285 101.808 22.156 101.92 22.0996C102.041 22.0432 102.174 22.015 102.319 22.015H102.573C102.637 22.0553 102.678 22.1117 102.694 22.1842C102.71 22.2567 102.718 22.3292 102.718 22.4017C102.718 22.7723 102.617 23.1228 102.416 23.4531C102.416 23.4612 102.4 23.4854 102.368 23.5256C102.343 23.5659 102.311 23.6102 102.271 23.6586C102.239 23.7069 102.206 23.7552 102.174 23.8036C102.15 23.8439 102.134 23.8721 102.126 23.8882C102.118 23.8962 102.11 23.9204 102.102 23.9607C102.094 24.001 102.086 24.0453 102.078 24.0936C102.078 24.142 102.073 24.1903 102.065 24.2386C102.057 24.2789 102.049 24.3031 102.041 24.3112C102.041 24.3273 102.033 24.3514 102.017 24.3837C102.009 24.4159 101.997 24.4401 101.981 24.4562C101.965 24.4803 101.932 24.5166 101.884 24.5649C101.844 24.6133 101.796 24.6656 101.739 24.722C101.683 24.7704 101.63 24.8187 101.582 24.8671C101.534 24.9154 101.501 24.9476 101.485 24.9637H101.377C101.232 24.9637 101.087 24.9758 100.942 25C100.772 25.0242 100.603 25.0363 100.434 25.0363C100.265 25.0363 100.112 25.0121 99.9747 24.9637C99.8378 24.9073 99.6686 24.8792 99.4672 24.8792C99.4269 24.8792 99.3624 24.8832 99.2738 24.8912C99.1852 24.8912 99.1328 24.8912 99.1167 24.8912L98.5487 24.9758C98.3715 25.0081 98.1902 25.0242 98.0049 25.0242C97.8196 25.0322 97.6343 25.0363 97.449 25.0363H96.5668C96.4379 25.0363 96.3251 25.0242 96.2284 25C96.1317 24.9758 96.027 24.9637 95.9142 24.9637C95.8336 24.9637 95.7531 24.9879 95.6725 25.0363C95.6 25.0846 95.5275 25.1088 95.455 25.1088L94.7903 24.9637C94.7822 24.9637 94.75 24.9718 94.6936 24.9879C94.6372 24.996 94.5728 25.0081 94.5002 25.0242C94.4277 25.0403 94.3512 25.0564 94.2706 25.0725C94.1901 25.0886 94.1256 25.1007 94.0773 25.1088C93.9806 25.1088 93.8759 25.0967 93.7631 25.0725C93.6583 25.0483 93.5576 25.0121 93.4609 24.9637C93.3723 24.9073 93.2958 24.8429 93.2313 24.7704C93.1669 24.6898 93.1346 24.5931 93.1346 24.4803ZM103.02 24.5408C103.02 24.3877 103.073 24.2709 103.177 24.1903C103.274 24.1097 103.391 24.0493 103.528 24.009C103.665 23.9607 103.802 23.9244 103.939 23.9003C104.084 23.868 104.2 23.8237 104.289 23.7673C104.313 23.7512 104.345 23.7271 104.386 23.6948C104.426 23.6545 104.47 23.6143 104.519 23.574C104.567 23.5256 104.615 23.4854 104.664 23.4531C104.712 23.4128 104.748 23.3846 104.772 23.3685L105.353 23.0785C105.425 23.0463 105.514 22.9536 105.618 22.8005C105.731 22.6475 105.84 22.4783 105.945 22.293C106.057 22.0996 106.162 21.9143 106.259 21.7371C106.356 21.5518 106.424 21.4148 106.464 21.3262C106.48 21.3101 106.493 21.2657 106.501 21.1932C106.509 21.1207 106.513 21.0643 106.513 21.024C106.521 20.9918 106.537 20.9515 106.561 20.9032C106.585 20.8468 106.597 20.8105 106.597 20.7944C106.613 20.7783 106.642 20.7421 106.682 20.6857C106.722 20.6212 106.766 20.5568 106.815 20.4923C106.863 20.4279 106.903 20.3674 106.936 20.311C106.976 20.2466 107 20.2063 107.008 20.1902C107.016 20.1821 107.024 20.1539 107.032 20.1056C107.04 20.0492 107.048 19.9928 107.057 19.9364C107.065 19.8719 107.073 19.8115 107.081 19.7551C107.089 19.6987 107.093 19.6625 107.093 19.6464C107.141 19.3885 107.21 19.1307 107.298 18.8729C107.395 18.6071 107.488 18.3452 107.576 18.0874C107.673 17.8296 107.757 17.5677 107.83 17.3019C107.902 17.036 107.951 16.7661 107.975 16.4922L108.809 14.196C108.922 13.8738 108.986 13.5354 109.002 13.1809C109.026 12.8184 109.087 12.4639 109.183 12.1174C109.32 11.8032 109.486 11.4971 109.679 11.199C109.872 10.8928 110.05 10.5665 110.211 10.2201C110.267 10.0428 110.299 9.85754 110.307 9.66418C110.323 9.46277 110.388 9.27747 110.501 9.10828C110.541 9.05188 110.642 8.94312 110.803 8.78198C110.964 8.62085 111.137 8.45569 111.323 8.2865C111.508 8.11731 111.689 7.96826 111.866 7.83936C112.044 7.71045 112.172 7.646 112.253 7.646C112.406 7.646 112.511 7.70239 112.567 7.81519C112.608 7.84741 112.648 7.89978 112.688 7.97229C112.736 8.0448 112.761 8.08911 112.761 8.10522C112.801 8.25024 112.857 8.39526 112.93 8.54028C113.002 8.6853 113.063 8.84241 113.111 9.0116L113.099 9.27747C113.099 9.39026 113.123 9.51111 113.172 9.64001C113.228 9.76086 113.272 9.86157 113.304 9.94214C113.393 10.2241 113.47 10.498 113.534 10.7639C113.607 11.0298 113.663 11.2957 113.703 11.5615C113.735 11.7227 113.788 11.8717 113.86 12.0087C113.933 12.1376 113.969 12.2866 113.969 12.4558L113.957 12.6492C114.102 12.7781 114.211 12.8949 114.283 12.9996C114.356 13.1044 114.412 13.2131 114.453 13.3259C114.501 13.4307 114.545 13.5475 114.585 13.6764C114.634 13.7972 114.706 13.9463 114.803 14.1235C114.884 14.2847 114.944 14.4377 114.984 14.5828C115.025 14.7197 115.057 14.8607 115.081 15.0057C115.113 15.1508 115.145 15.3038 115.178 15.465C115.21 15.6261 115.262 15.7993 115.335 15.9846C115.343 16.0249 115.367 16.0934 115.407 16.1901C115.456 16.2867 115.48 16.3512 115.48 16.3834V16.8427C115.48 16.8588 115.496 16.895 115.528 16.9514C115.56 17.0078 115.597 17.0723 115.637 17.1448C115.677 17.2092 115.713 17.2737 115.746 17.3381C115.778 17.4026 115.794 17.4469 115.794 17.4711C115.794 17.4791 115.794 17.5033 115.794 17.5436C115.802 17.5758 115.806 17.6161 115.806 17.6644C115.814 17.7047 115.822 17.745 115.83 17.7853C115.838 17.8256 115.846 17.8457 115.854 17.8457L116.193 18.1841C116.249 18.2324 116.285 18.2888 116.302 18.3533C116.318 18.4177 116.33 18.4902 116.338 18.5708C116.346 18.6433 116.354 18.7198 116.362 18.8004C116.37 18.8729 116.394 18.9454 116.434 19.0179C116.531 19.2435 116.616 19.4772 116.688 19.7189C116.761 19.9525 116.857 20.1862 116.978 20.4198C117.051 20.589 117.111 20.7703 117.16 20.9636C117.208 21.1489 117.232 21.3302 117.232 21.5074V21.6525C117.337 21.8378 117.454 22.0029 117.583 22.1479C117.711 22.293 117.816 22.434 117.897 22.5709C117.969 22.7482 118.046 22.8892 118.126 22.9939C118.207 23.0986 118.283 23.1832 118.356 23.2477C118.437 23.3121 118.513 23.3645 118.586 23.4048C118.658 23.437 118.731 23.4733 118.803 23.5135C118.98 23.6183 119.162 23.6948 119.347 23.7432C119.54 23.7915 119.782 23.8398 120.072 23.8882L120.41 23.9728C120.515 24.0372 120.58 24.1339 120.604 24.2628C120.628 24.3837 120.64 24.4884 120.64 24.577C120.64 24.7462 120.572 24.8711 120.435 24.9517C120.306 25.0242 120.173 25.0604 120.036 25.0604L119.009 25H118.755C118.714 24.9678 118.658 24.9436 118.586 24.9275C118.521 24.9033 118.453 24.8872 118.38 24.8792C118.308 24.8711 118.239 24.8671 118.175 24.8671C118.118 24.8671 118.082 24.863 118.066 24.855H116.628C116.563 24.7664 116.503 24.718 116.447 24.71C116.398 24.6938 116.326 24.6858 116.229 24.6858C115.899 24.6858 115.552 24.7301 115.19 24.8187C114.835 24.8993 114.457 24.9396 114.054 24.9396H113.788C113.659 24.9396 113.534 24.9355 113.413 24.9275C113.3 24.9194 113.2 24.8872 113.111 24.8308C113.071 24.8066 113.051 24.7382 113.051 24.6254L113.075 24.432C113.091 24.3917 113.099 24.3555 113.099 24.3232C113.099 24.291 113.099 24.2668 113.099 24.2507C113.099 24.1943 113.123 24.1581 113.172 24.142C113.317 24.0775 113.482 24.0292 113.667 23.9969C113.852 23.9647 114.03 23.9285 114.199 23.8882C114.368 23.8479 114.509 23.7915 114.622 23.719C114.743 23.6465 114.803 23.5377 114.803 23.3927V23.3685C114.795 23.1832 114.779 22.9738 114.755 22.7401C114.739 22.4984 114.73 22.2607 114.73 22.0271C114.73 21.9465 114.702 21.8619 114.646 21.7733C114.598 21.6847 114.569 21.6041 114.561 21.5316V20.7944C114.545 20.6897 114.493 20.5245 114.404 20.299C114.324 20.0653 114.219 19.8357 114.09 19.6101C113.969 19.3845 113.836 19.1871 113.691 19.0179C113.546 18.8407 113.401 18.7521 113.256 18.7521C113.047 18.7521 112.829 18.7964 112.604 18.885C112.386 18.9736 112.164 19.0179 111.939 19.0179C111.745 19.0179 111.56 18.9817 111.383 18.9092C111.214 18.8286 111.012 18.7883 110.779 18.7883H110.005C109.836 18.7883 109.663 18.8004 109.486 18.8246C109.316 18.8407 109.159 18.8931 109.014 18.9817C108.765 19.1267 108.535 19.3241 108.325 19.5739C108.116 19.8156 107.963 20.1177 107.866 20.4802L107.782 21.3262C107.782 21.3423 107.774 21.3826 107.757 21.447C107.741 21.5115 107.725 21.58 107.709 21.6525C107.693 21.725 107.677 21.7935 107.661 21.8579C107.645 21.9143 107.637 21.9506 107.637 21.9667C107.637 21.9828 107.633 22.007 107.625 22.0392C107.616 22.0714 107.612 22.1036 107.612 22.1359C107.612 22.2809 107.637 22.3856 107.685 22.4501C107.733 22.5145 107.794 22.6112 107.866 22.7401C107.906 22.8126 107.959 22.9093 108.023 23.0302C108.096 23.151 108.168 23.2557 108.241 23.3444C108.354 23.441 108.503 23.5176 108.688 23.574C108.881 23.6304 109.071 23.6908 109.256 23.7552C109.441 23.8197 109.598 23.9003 109.727 23.9969C109.864 24.0936 109.933 24.2266 109.933 24.3958V24.4803C109.892 24.7946 109.776 25 109.582 25.0967C109.389 25.2014 109.139 25.2538 108.833 25.2538L107.782 24.9758H107.347C107.202 24.9758 107.052 24.9799 106.899 24.9879C106.746 24.996 106.597 25.0081 106.452 25.0242C106.315 25.0403 106.19 25.0604 106.078 25.0846C105.973 25.1168 105.892 25.1531 105.836 25.1934C105.635 25.1934 105.433 25.1974 105.232 25.2054C105.038 25.2135 104.861 25.2216 104.7 25.2296C104.547 25.2377 104.418 25.2417 104.313 25.2417C104.217 25.2498 104.16 25.2538 104.144 25.2538C104.039 25.2538 103.922 25.2377 103.794 25.2054C103.665 25.1732 103.54 25.1249 103.419 25.0604C103.306 24.996 103.214 24.9235 103.141 24.8429C103.06 24.7543 103.02 24.6536 103.02 24.5408ZM109.244 16.3472C109.236 16.4358 109.228 16.5244 109.22 16.613C109.212 16.6936 109.208 16.7701 109.208 16.8427C109.208 17.0682 109.26 17.2213 109.365 17.3019C109.469 17.3744 109.631 17.4106 109.848 17.4106C109.872 17.4106 109.892 17.4026 109.909 17.3865C109.917 17.3784 109.925 17.3663 109.933 17.3502C109.949 17.3502 110.001 17.3422 110.09 17.326C110.187 17.3099 110.255 17.2979 110.295 17.2898C110.368 17.2979 110.436 17.3099 110.501 17.326C110.573 17.3422 110.63 17.3502 110.67 17.3502H112.567C113.115 17.3502 113.389 17.1005 113.389 16.601C113.389 16.5284 113.361 16.4358 113.304 16.323C113.256 16.2102 113.196 16.0894 113.123 15.9604C113.051 15.8235 112.978 15.6825 112.906 15.5375C112.841 15.3925 112.793 15.2515 112.761 15.1145C112.761 15.0581 112.74 15.0098 112.7 14.9695L112.132 14.1235C112.132 14.0833 112.116 14.043 112.084 14.0027C112.06 13.9624 112.04 13.9221 112.023 13.8818L111.963 13.6281C111.923 13.4589 111.874 13.2534 111.818 13.0117C111.762 12.77 111.693 12.5404 111.613 12.3229C111.532 12.1053 111.439 11.92 111.335 11.767C111.238 11.6139 111.129 11.5374 111.008 11.5374C110.936 11.5374 110.843 11.6421 110.73 11.8516C110.618 12.061 110.493 12.3269 110.356 12.6492C110.227 12.9714 110.094 13.33 109.957 13.7247C109.828 14.1115 109.711 14.4821 109.606 14.8365C109.502 15.191 109.413 15.5093 109.341 15.7913C109.276 16.0652 109.244 16.2505 109.244 16.3472ZM121.111 24.6012C121.111 24.4562 121.148 24.3474 121.22 24.2749C121.301 24.2024 121.393 24.15 121.498 24.1178C121.611 24.0775 121.724 24.0493 121.836 24.0332C121.957 24.0171 122.062 23.9929 122.151 23.9607C122.408 23.6223 122.578 23.2356 122.658 22.8005C122.739 22.3655 122.779 21.9224 122.779 21.4712C122.779 21.1731 122.771 20.8831 122.755 20.6011C122.747 20.3191 122.743 20.0492 122.743 19.7914V19.5376C122.743 19.5054 122.747 19.4288 122.755 19.308C122.763 19.1791 122.771 19.0461 122.779 18.9092C122.795 18.7642 122.807 18.6312 122.815 18.5104C122.831 18.3815 122.839 18.3009 122.839 18.2687C122.839 18.2445 122.831 18.1921 122.815 18.1116C122.807 18.031 122.795 17.9464 122.779 17.8578C122.771 17.7692 122.763 17.6846 122.755 17.604C122.747 17.5234 122.743 17.4711 122.743 17.4469C122.735 17.3905 122.727 17.2817 122.719 17.1206C122.711 16.9514 122.698 16.7742 122.682 16.5889C122.674 16.3955 122.662 16.2183 122.646 16.0571C122.63 15.8879 122.618 15.7671 122.61 15.6946C122.521 15.5415 122.404 15.4126 122.259 15.3079C122.122 15.1951 121.985 15.0903 121.849 14.9937C121.712 14.897 121.591 14.8003 121.486 14.7036C121.389 14.5989 121.341 14.478 121.341 14.3411V14.196C121.341 14.1396 121.345 14.0913 121.353 14.051C121.369 14.0027 121.405 13.9745 121.462 13.9664C121.679 13.8939 121.917 13.8335 122.175 13.7852C122.433 13.7368 122.694 13.7006 122.96 13.6764C123.226 13.6442 123.484 13.624 123.734 13.616C123.992 13.6079 124.229 13.6039 124.447 13.6039H124.701C124.733 13.62 124.797 13.6482 124.894 13.6885C124.991 13.7207 125.047 13.7368 125.063 13.7368H125.752C125.768 13.7368 125.8 13.7408 125.849 13.7489C125.905 13.757 125.961 13.769 126.018 13.7852C126.082 13.7932 126.143 13.8053 126.199 13.8214C126.255 13.8375 126.3 13.8496 126.332 13.8577C126.775 13.9624 127.23 14.0631 127.698 14.1598C128.173 14.2565 128.616 14.4216 129.027 14.6553C129.059 14.6956 129.112 14.7721 129.184 14.8849C129.265 14.9896 129.349 15.1064 129.438 15.2354C129.526 15.3562 129.607 15.473 129.68 15.5858C129.76 15.6986 129.817 15.7792 129.849 15.8275C129.857 15.8436 129.873 15.8839 129.897 15.9484C129.929 16.0048 129.945 16.041 129.945 16.0571C129.953 16.0813 129.966 16.1498 129.982 16.2626C130.006 16.3673 130.03 16.4882 130.054 16.6251C130.078 16.754 130.099 16.887 130.115 17.0239C130.139 17.1528 130.155 17.2535 130.163 17.326C130.163 17.3341 130.167 17.3422 130.175 17.3502C130.191 17.3663 130.199 17.3865 130.199 17.4106C130.199 17.5073 130.171 17.6403 130.115 17.8094C130.066 17.9706 130.002 18.1357 129.921 18.3049C129.849 18.4741 129.764 18.6312 129.667 18.7762C129.571 18.9213 129.478 19.022 129.39 19.0784C129.365 19.0945 129.309 19.1267 129.22 19.175C129.14 19.2234 129.051 19.2717 128.954 19.3201C128.866 19.3684 128.781 19.4167 128.701 19.4651C128.628 19.5054 128.584 19.5295 128.568 19.5376C128.552 19.5457 128.519 19.5658 128.471 19.598C128.423 19.6302 128.37 19.6665 128.314 19.7068C128.266 19.7471 128.217 19.7833 128.169 19.8156C128.121 19.8478 128.088 19.8679 128.072 19.876C128.064 19.884 128.044 19.8961 128.012 19.9122C127.98 19.9203 127.943 19.9324 127.903 19.9485C127.871 19.9646 127.839 19.9807 127.806 19.9968C127.774 20.0049 127.758 20.0089 127.758 20.0089C127.726 20.017 127.682 20.0371 127.625 20.0693C127.569 20.0935 127.536 20.1136 127.528 20.1298H126.876C126.707 20.1298 126.558 20.1298 126.429 20.1298C126.3 20.1298 126.171 20.1257 126.042 20.1177C125.913 20.1096 125.78 20.0975 125.643 20.0814C125.506 20.0653 125.345 20.0411 125.16 20.0089C125.095 20.0331 125.043 20.0613 125.003 20.0935C124.898 20.1499 124.846 20.1982 124.846 20.2385V22.2205C124.91 22.3252 124.946 22.4178 124.954 22.4984C124.97 22.579 124.979 22.6757 124.979 22.7885C124.979 22.9254 124.954 23.0543 124.906 23.1752C124.866 23.296 124.846 23.4249 124.846 23.5619V23.5981C124.87 23.6384 124.922 23.7029 125.003 23.7915C125.091 23.8801 125.144 23.9365 125.16 23.9607C125.256 23.9607 125.369 23.9526 125.498 23.9365C125.635 23.9204 125.772 23.9124 125.909 23.9124C126.119 23.9124 126.304 23.9446 126.465 24.009C126.626 24.0735 126.707 24.2145 126.707 24.432C126.707 24.5448 126.662 24.6697 126.574 24.8066C126.493 24.9355 126.384 25 126.247 25H121.8C121.768 25 121.712 24.9919 121.631 24.9758C121.558 24.9517 121.482 24.9235 121.401 24.8912C121.329 24.851 121.26 24.8066 121.196 24.7583C121.14 24.71 121.111 24.6576 121.111 24.6012ZM124.846 19.1871C124.862 19.2113 124.894 19.2516 124.942 19.308C124.999 19.3644 125.039 19.4006 125.063 19.4167H125.124H125.16C125.176 19.4167 125.208 19.4127 125.256 19.4047C125.305 19.3885 125.357 19.3765 125.414 19.3684C125.47 19.3523 125.522 19.3402 125.571 19.3322C125.619 19.316 125.651 19.308 125.667 19.308H125.873H126.562H126.707C126.731 19.308 126.775 19.2878 126.84 19.2476C126.904 19.2073 126.973 19.163 127.045 19.1146C127.118 19.0663 127.186 19.0179 127.25 18.9696C127.323 18.9132 127.371 18.8689 127.396 18.8367C127.404 18.8286 127.412 18.8044 127.42 18.7642C127.428 18.7158 127.436 18.6675 127.444 18.6191C127.46 18.5627 127.472 18.5104 127.48 18.462C127.496 18.4137 127.512 18.3855 127.528 18.3774C127.545 18.3049 127.569 18.2405 127.601 18.1841C127.641 18.1277 127.682 18.0753 127.722 18.027C127.762 17.9706 127.798 17.9142 127.831 17.8578C127.863 17.7933 127.879 17.7208 127.879 17.6403C127.879 17.608 127.871 17.5677 127.855 17.5194C127.847 17.4952 127.843 17.4711 127.843 17.4469C127.835 17.3502 127.818 17.2253 127.794 17.0723C127.778 16.9111 127.758 16.75 127.734 16.5889C127.71 16.4277 127.686 16.2867 127.661 16.1659C127.637 16.045 127.621 15.9725 127.613 15.9484C127.573 15.7792 127.504 15.6342 127.408 15.5133C127.319 15.3844 127.21 15.2756 127.081 15.187C126.96 15.0903 126.828 15.0098 126.682 14.9453C126.537 14.8809 126.392 14.8245 126.247 14.7761H126.163C125.986 14.7761 125.784 14.7922 125.559 14.8245C125.341 14.8486 125.132 14.9091 124.93 15.0057C124.946 15.1105 124.954 15.2112 124.954 15.3079C124.954 15.4045 124.954 15.5052 124.954 15.61C124.954 16.0853 124.934 16.5566 124.894 17.0239C124.862 17.4832 124.846 17.9625 124.846 18.462V19.1871ZM131.746 24.6012C131.746 24.4562 131.782 24.3474 131.855 24.2749C131.935 24.2024 132.028 24.15 132.133 24.1178C132.246 24.0775 132.358 24.0493 132.471 24.0332C132.592 24.0171 132.697 23.9929 132.785 23.9607C133.043 23.6223 133.212 23.2356 133.293 22.8005C133.374 22.3655 133.414 21.9224 133.414 21.4712C133.414 21.1731 133.406 20.8831 133.39 20.6011C133.382 20.3191 133.378 20.0492 133.378 19.7914V19.5376C133.378 19.5054 133.382 19.4288 133.39 19.308C133.398 19.1791 133.406 19.0461 133.414 18.9092C133.43 18.7642 133.442 18.6312 133.45 18.5104C133.466 18.3815 133.474 18.3009 133.474 18.2687C133.474 18.2445 133.466 18.1921 133.45 18.1116C133.442 18.031 133.43 17.9464 133.414 17.8578C133.406 17.7692 133.398 17.6846 133.39 17.604C133.382 17.5234 133.378 17.4711 133.378 17.4469C133.37 17.3905 133.361 17.2817 133.353 17.1206C133.345 16.9514 133.333 16.7742 133.317 16.5889C133.309 16.3955 133.297 16.2183 133.281 16.0571C133.265 15.8879 133.253 15.7671 133.245 15.6946C133.156 15.5415 133.039 15.4126 132.894 15.3079C132.757 15.1951 132.62 15.0903 132.483 14.9937C132.346 14.897 132.225 14.8003 132.121 14.7036C132.024 14.5989 131.976 14.478 131.976 14.3411V14.196C131.976 14.1396 131.98 14.0913 131.988 14.051C132.004 14.0027 132.04 13.9745 132.097 13.9664C132.314 13.8939 132.552 13.8335 132.81 13.7852C133.067 13.7368 133.329 13.7006 133.595 13.6764C133.861 13.6442 134.119 13.624 134.369 13.616C134.626 13.6079 134.864 13.6039 135.082 13.6039H135.335C135.368 13.62 135.432 13.6482 135.529 13.6885C135.625 13.7207 135.682 13.7368 135.698 13.7368H136.387C136.403 13.7368 136.435 13.7408 136.483 13.7489C136.54 13.757 136.596 13.769 136.653 13.7852C136.717 13.7932 136.777 13.8053 136.834 13.8214C136.89 13.8375 136.935 13.8496 136.967 13.8577C137.41 13.9624 137.865 14.0631 138.332 14.1598C138.808 14.2565 139.251 14.4216 139.662 14.6553C139.694 14.6956 139.746 14.7721 139.819 14.8849C139.899 14.9896 139.984 15.1064 140.073 15.2354C140.161 15.3562 140.242 15.473 140.314 15.5858C140.395 15.6986 140.451 15.7792 140.484 15.8275C140.492 15.8436 140.508 15.8839 140.532 15.9484C140.564 16.0048 140.58 16.041 140.58 16.0571C140.588 16.0813 140.6 16.1498 140.616 16.2626C140.641 16.3673 140.665 16.4882 140.689 16.6251C140.713 16.754 140.733 16.887 140.749 17.0239C140.774 17.1528 140.79 17.2535 140.798 17.326C140.798 17.3341 140.802 17.3422 140.81 17.3502C140.826 17.3663 140.834 17.3865 140.834 17.4106C140.834 17.5073 140.806 17.6403 140.749 17.8094C140.701 17.9706 140.637 18.1357 140.556 18.3049C140.484 18.4741 140.399 18.6312 140.302 18.7762C140.206 18.9213 140.113 19.022 140.024 19.0784C140 19.0945 139.944 19.1267 139.855 19.175C139.775 19.2234 139.686 19.2717 139.589 19.3201C139.501 19.3684 139.416 19.4167 139.335 19.4651C139.263 19.5054 139.219 19.5295 139.203 19.5376C139.186 19.5457 139.154 19.5658 139.106 19.598C139.057 19.6302 139.005 19.6665 138.949 19.7068C138.9 19.7471 138.852 19.7833 138.804 19.8156C138.755 19.8478 138.723 19.8679 138.707 19.876C138.699 19.884 138.679 19.8961 138.647 19.9122C138.614 19.9203 138.578 19.9324 138.538 19.9485C138.506 19.9646 138.473 19.9807 138.441 19.9968C138.409 20.0049 138.393 20.0089 138.393 20.0089C138.361 20.017 138.316 20.0371 138.26 20.0693C138.203 20.0935 138.171 20.1136 138.163 20.1298H137.511C137.341 20.1298 137.192 20.1298 137.063 20.1298C136.935 20.1298 136.806 20.1257 136.677 20.1177C136.548 20.1096 136.415 20.0975 136.278 20.0814C136.141 20.0653 135.98 20.0411 135.795 20.0089C135.73 20.0331 135.678 20.0613 135.637 20.0935C135.533 20.1499 135.48 20.1982 135.48 20.2385V22.2205C135.545 22.3252 135.581 22.4178 135.589 22.4984C135.605 22.579 135.613 22.6757 135.613 22.7885C135.613 22.9254 135.589 23.0543 135.541 23.1752C135.5 23.296 135.48 23.4249 135.48 23.5619V23.5981C135.505 23.6384 135.557 23.7029 135.637 23.7915C135.726 23.8801 135.778 23.9365 135.795 23.9607C135.891 23.9607 136.004 23.9526 136.133 23.9365C136.27 23.9204 136.407 23.9124 136.544 23.9124C136.753 23.9124 136.939 23.9446 137.1 24.009C137.261 24.0735 137.341 24.2145 137.341 24.432C137.341 24.5448 137.297 24.6697 137.208 24.8066C137.128 24.9355 137.019 25 136.882 25H132.435C132.403 25 132.346 24.9919 132.266 24.9758C132.193 24.9517 132.117 24.9235 132.036 24.8912C131.964 24.851 131.895 24.8066 131.831 24.7583C131.774 24.71 131.746 24.6576 131.746 24.6012ZM135.48 19.1871C135.496 19.2113 135.529 19.2516 135.577 19.308C135.633 19.3644 135.674 19.4006 135.698 19.4167H135.758H135.795C135.811 19.4167 135.843 19.4127 135.891 19.4047C135.94 19.3885 135.992 19.3765 136.048 19.3684C136.105 19.3523 136.157 19.3402 136.205 19.3322C136.254 19.316 136.286 19.308 136.302 19.308H136.508H137.196H137.341C137.366 19.308 137.41 19.2878 137.474 19.2476C137.539 19.2073 137.607 19.163 137.68 19.1146C137.752 19.0663 137.821 19.0179 137.885 18.9696C137.958 18.9132 138.006 18.8689 138.03 18.8367C138.038 18.8286 138.046 18.8044 138.054 18.7642C138.062 18.7158 138.071 18.6675 138.079 18.6191C138.095 18.5627 138.107 18.5104 138.115 18.462C138.131 18.4137 138.147 18.3855 138.163 18.3774C138.179 18.3049 138.203 18.2405 138.236 18.1841C138.276 18.1277 138.316 18.0753 138.357 18.027C138.397 17.9706 138.433 17.9142 138.465 17.8578C138.498 17.7933 138.514 17.7208 138.514 17.6403C138.514 17.608 138.506 17.5677 138.49 17.5194C138.481 17.4952 138.477 17.4711 138.477 17.4469C138.469 17.3502 138.453 17.2253 138.429 17.0723C138.413 16.9111 138.393 16.75 138.369 16.5889C138.344 16.4277 138.32 16.2867 138.296 16.1659C138.272 16.045 138.256 15.9725 138.248 15.9484C138.208 15.7792 138.139 15.6342 138.042 15.5133C137.954 15.3844 137.845 15.2756 137.716 15.187C137.595 15.0903 137.462 15.0098 137.317 14.9453C137.172 14.8809 137.027 14.8245 136.882 14.7761H136.798C136.62 14.7761 136.419 14.7922 136.193 14.8245C135.976 14.8486 135.766 14.9091 135.565 15.0057C135.581 15.1105 135.589 15.2112 135.589 15.3079C135.589 15.4045 135.589 15.5052 135.589 15.61C135.589 16.0853 135.569 16.5566 135.529 17.0239C135.496 17.4832 135.48 17.9625 135.48 18.462V19.1871Z" fill="white"/>
</svg>
