<svg width="29" height="29" viewBox="0 0 29 29" fill="none" xmlns="http://www.w3.org/2000/svg">
<g clip-path="url(#clip0_12_82)">
<path d="M16.326 12.7008L26.2282 12.7184C27.2292 12.7196 28.0397 13.532 28.0386 14.533C28.0374 15.534 27.225 16.3446 26.224 16.3434L16.328 16.3258L16.3335 26.2279C16.3339 27.229 15.5227 28.0407 14.5217 28.0411C13.5207 28.0415 12.7089 27.2303 12.7085 26.2292L12.703 16.3194L2.80162 16.3018C1.80061 16.3006 0.990051 15.4882 0.991212 14.4872C0.992373 13.4862 1.8048 12.6756 2.80581 12.6768L12.701 12.6944L12.6955 2.80036C12.6951 1.79936 13.5063 0.987581 14.5073 0.987213C15.5084 0.986845 16.3201 1.79802 16.3205 2.79906L16.326 12.7008Z" fill="white"/>
</g>
<defs>
<clipPath id="clip0_12_82">
<rect width="29" height="29" fill="white"/>
</clipPath>
</defs>
</svg>
